M48
;DRILL file {KiCad 4.0.7} date 04/18/19 12:47:33
;FORMAT={-:-/ absolute / metric / decimal}
FMAT,2
METRIC,TZ
T1C0.400
T2C1.000
%
G90
G05
M71
T1
X117.983Y-139.573
X131.318Y-118.364
X135.636Y-135.89
X136.271Y-118.491
X136.271Y-125.857
X138.049Y-125.603
X138.176Y-136.017
X149.225Y-136.144
X150.495Y-129.286
T2
X115.57Y-107.95
X115.57Y-110.49
X115.57Y-113.03
X115.57Y-115.57
X115.57Y-118.11
X115.57Y-120.65
X115.57Y-123.19
X115.57Y-125.73
X115.57Y-128.27
X115.57Y-130.81
X115.57Y-133.35
X115.57Y-135.89
X141.541Y-135.28
X144.082Y-135.28
X148.59Y-123.19
X148.59Y-125.73
X148.59Y-128.27
X148.59Y-130.81
X148.59Y-133.35
T0
M30
