G04 #@! TF.FileFunction,Legend,Top*
%FSLAX46Y46*%
G04 Gerber Fmt 4.6, Leading zero omitted, Abs format (unit mm)*
G04 Created by KiCad (PCBNEW 4.0.7) date 04/18/19 12:47:30*
%MOMM*%
%LPD*%
G01*
G04 APERTURE LIST*
%ADD10C,0.100000*%
%ADD11C,0.120000*%
%ADD12C,0.150000*%
G04 APERTURE END LIST*
D10*
X145725800Y-135267628D02*
X145690086Y-135339057D01*
X145690086Y-135446200D01*
X145725800Y-135553343D01*
X145797229Y-135624771D01*
X145868657Y-135660486D01*
X146011514Y-135696200D01*
X146118657Y-135696200D01*
X146261514Y-135660486D01*
X146332943Y-135624771D01*
X146404371Y-135553343D01*
X146440086Y-135446200D01*
X146440086Y-135374771D01*
X146404371Y-135267628D01*
X146368657Y-135231914D01*
X146118657Y-135231914D01*
X146118657Y-135374771D01*
X146440086Y-134910486D02*
X145690086Y-134910486D01*
X146440086Y-134481914D01*
X145690086Y-134481914D01*
X146440086Y-134124772D02*
X145690086Y-134124772D01*
X145690086Y-133946200D01*
X145725800Y-133839057D01*
X145797229Y-133767629D01*
X145868657Y-133731914D01*
X146011514Y-133696200D01*
X146118657Y-133696200D01*
X146261514Y-133731914D01*
X146332943Y-133767629D01*
X146404371Y-133839057D01*
X146440086Y-133946200D01*
X146440086Y-134124772D01*
X137918144Y-134056886D02*
X138168144Y-134806886D01*
X138418144Y-134056886D01*
X138989572Y-134771171D02*
X138918143Y-134806886D01*
X138775286Y-134806886D01*
X138703858Y-134771171D01*
X138668143Y-134735457D01*
X138632429Y-134664029D01*
X138632429Y-134449743D01*
X138668143Y-134378314D01*
X138703858Y-134342600D01*
X138775286Y-134306886D01*
X138918143Y-134306886D01*
X138989572Y-134342600D01*
X139632429Y-134771171D02*
X139561000Y-134806886D01*
X139418143Y-134806886D01*
X139346715Y-134771171D01*
X139311000Y-134735457D01*
X139275286Y-134664029D01*
X139275286Y-134449743D01*
X139311000Y-134378314D01*
X139346715Y-134342600D01*
X139418143Y-134306886D01*
X139561000Y-134306886D01*
X139632429Y-134342600D01*
X151082357Y-133002786D02*
X150939500Y-133002786D01*
X150868071Y-133038500D01*
X150832357Y-133074214D01*
X150760928Y-133181357D01*
X150725214Y-133324214D01*
X150725214Y-133609929D01*
X150760928Y-133681357D01*
X150796643Y-133717071D01*
X150868071Y-133752786D01*
X151010928Y-133752786D01*
X151082357Y-133717071D01*
X151118071Y-133681357D01*
X151153786Y-133609929D01*
X151153786Y-133431357D01*
X151118071Y-133359929D01*
X151082357Y-133324214D01*
X151010928Y-133288500D01*
X150868071Y-133288500D01*
X150796643Y-133324214D01*
X150760928Y-133359929D01*
X150725214Y-133431357D01*
X151095057Y-130661986D02*
X151095057Y-131161986D01*
X150916486Y-130376271D02*
X150737914Y-130911986D01*
X151202200Y-130911986D01*
X150702200Y-127884686D02*
X151166486Y-127884686D01*
X150916486Y-128170400D01*
X151023628Y-128170400D01*
X151095057Y-128206114D01*
X151130771Y-128241829D01*
X151166486Y-128313257D01*
X151166486Y-128491829D01*
X151130771Y-128563257D01*
X151095057Y-128598971D01*
X151023628Y-128634686D01*
X150809343Y-128634686D01*
X150737914Y-128598971D01*
X150702200Y-128563257D01*
X150788714Y-125378014D02*
X150824428Y-125342300D01*
X150895857Y-125306586D01*
X151074428Y-125306586D01*
X151145857Y-125342300D01*
X151181571Y-125378014D01*
X151217286Y-125449443D01*
X151217286Y-125520871D01*
X151181571Y-125628014D01*
X150753000Y-126056586D01*
X151217286Y-126056586D01*
X151191886Y-123516586D02*
X150763314Y-123516586D01*
X150977600Y-123516586D02*
X150977600Y-122766586D01*
X150906171Y-122873729D01*
X150834743Y-122945157D01*
X150763314Y-122980871D01*
X145728186Y-130486529D02*
X146263900Y-130486529D01*
X146371043Y-130522243D01*
X146442471Y-130593672D01*
X146478186Y-130700815D01*
X146478186Y-130772243D01*
X146478186Y-130022243D02*
X146442471Y-130093671D01*
X146406757Y-130129386D01*
X146335329Y-130165100D01*
X146121043Y-130165100D01*
X146049614Y-130129386D01*
X146013900Y-130093671D01*
X145978186Y-130022243D01*
X145978186Y-129915100D01*
X146013900Y-129843671D01*
X146049614Y-129807957D01*
X146121043Y-129772243D01*
X146335329Y-129772243D01*
X146406757Y-129807957D01*
X146442471Y-129843671D01*
X146478186Y-129915100D01*
X146478186Y-130022243D01*
X145978186Y-129522243D02*
X146478186Y-129343672D01*
X145978186Y-129165100D02*
X146478186Y-129343672D01*
X146656757Y-129415100D01*
X146692471Y-129450815D01*
X146728186Y-129522243D01*
X146442471Y-128915100D02*
X146478186Y-128843671D01*
X146478186Y-128700814D01*
X146442471Y-128629386D01*
X146371043Y-128593671D01*
X146335329Y-128593671D01*
X146263900Y-128629386D01*
X146228186Y-128700814D01*
X146228186Y-128807957D01*
X146192471Y-128879386D01*
X146121043Y-128915100D01*
X146085329Y-128915100D01*
X146013900Y-128879386D01*
X145978186Y-128807957D01*
X145978186Y-128700814D01*
X146013900Y-128629386D01*
X145978186Y-128379385D02*
X145978186Y-128093671D01*
X145728186Y-128272243D02*
X146371043Y-128272243D01*
X146442471Y-128236528D01*
X146478186Y-128165100D01*
X146478186Y-128093671D01*
X146478186Y-127843672D02*
X145978186Y-127843672D01*
X145728186Y-127843672D02*
X145763900Y-127879386D01*
X145799614Y-127843672D01*
X145763900Y-127807957D01*
X145728186Y-127843672D01*
X145799614Y-127843672D01*
X146442471Y-127165100D02*
X146478186Y-127236529D01*
X146478186Y-127379386D01*
X146442471Y-127450814D01*
X146406757Y-127486529D01*
X146335329Y-127522243D01*
X146121043Y-127522243D01*
X146049614Y-127486529D01*
X146013900Y-127450814D01*
X145978186Y-127379386D01*
X145978186Y-127236529D01*
X146013900Y-127165100D01*
X146478186Y-126843672D02*
X145728186Y-126843672D01*
X146192471Y-126772243D02*
X146478186Y-126557957D01*
X145978186Y-126557957D02*
X146263900Y-126843672D01*
X146478186Y-125665100D02*
X145728186Y-125665100D01*
X145728186Y-125379385D01*
X145763900Y-125307957D01*
X145799614Y-125272242D01*
X145871043Y-125236528D01*
X145978186Y-125236528D01*
X146049614Y-125272242D01*
X146085329Y-125307957D01*
X146121043Y-125379385D01*
X146121043Y-125665100D01*
X146478186Y-124915100D02*
X145978186Y-124915100D01*
X145728186Y-124915100D02*
X145763900Y-124950814D01*
X145799614Y-124915100D01*
X145763900Y-124879385D01*
X145728186Y-124915100D01*
X145799614Y-124915100D01*
X145978186Y-124557957D02*
X146478186Y-124557957D01*
X146049614Y-124557957D02*
X146013900Y-124522242D01*
X145978186Y-124450814D01*
X145978186Y-124343671D01*
X146013900Y-124272242D01*
X146085329Y-124236528D01*
X146478186Y-124236528D01*
X146442471Y-123915100D02*
X146478186Y-123843671D01*
X146478186Y-123700814D01*
X146442471Y-123629386D01*
X146371043Y-123593671D01*
X146335329Y-123593671D01*
X146263900Y-123629386D01*
X146228186Y-123700814D01*
X146228186Y-123807957D01*
X146192471Y-123879386D01*
X146121043Y-123915100D01*
X146085329Y-123915100D01*
X146013900Y-123879386D01*
X145978186Y-123807957D01*
X145978186Y-123700814D01*
X146013900Y-123629386D01*
X118449286Y-125489287D02*
X117699286Y-125489287D01*
X118449286Y-125132144D02*
X117699286Y-125132144D01*
X117699286Y-124846429D01*
X117735000Y-124775001D01*
X117770714Y-124739286D01*
X117842143Y-124703572D01*
X117949286Y-124703572D01*
X118020714Y-124739286D01*
X118056429Y-124775001D01*
X118092143Y-124846429D01*
X118092143Y-125132144D01*
X118413571Y-124417858D02*
X118449286Y-124310715D01*
X118449286Y-124132144D01*
X118413571Y-124060715D01*
X118377857Y-124025001D01*
X118306429Y-123989286D01*
X118235000Y-123989286D01*
X118163571Y-124025001D01*
X118127857Y-124060715D01*
X118092143Y-124132144D01*
X118056429Y-124275001D01*
X118020714Y-124346429D01*
X117985000Y-124382144D01*
X117913571Y-124417858D01*
X117842143Y-124417858D01*
X117770714Y-124382144D01*
X117735000Y-124346429D01*
X117699286Y-124275001D01*
X117699286Y-124096429D01*
X117735000Y-123989286D01*
X118449286Y-123096429D02*
X117699286Y-123096429D01*
X117699286Y-122917857D01*
X117735000Y-122810714D01*
X117806429Y-122739286D01*
X117877857Y-122703571D01*
X118020714Y-122667857D01*
X118127857Y-122667857D01*
X118270714Y-122703571D01*
X118342143Y-122739286D01*
X118413571Y-122810714D01*
X118449286Y-122917857D01*
X118449286Y-123096429D01*
X118449286Y-122346429D02*
X117699286Y-122346429D01*
X118413571Y-122025000D02*
X118449286Y-121917857D01*
X118449286Y-121739286D01*
X118413571Y-121667857D01*
X118377857Y-121632143D01*
X118306429Y-121596428D01*
X118235000Y-121596428D01*
X118163571Y-121632143D01*
X118127857Y-121667857D01*
X118092143Y-121739286D01*
X118056429Y-121882143D01*
X118020714Y-121953571D01*
X117985000Y-121989286D01*
X117913571Y-122025000D01*
X117842143Y-122025000D01*
X117770714Y-121989286D01*
X117735000Y-121953571D01*
X117699286Y-121882143D01*
X117699286Y-121703571D01*
X117735000Y-121596428D01*
X118449286Y-121275000D02*
X117699286Y-121275000D01*
X117699286Y-120989285D01*
X117735000Y-120917857D01*
X117770714Y-120882142D01*
X117842143Y-120846428D01*
X117949286Y-120846428D01*
X118020714Y-120882142D01*
X118056429Y-120917857D01*
X118092143Y-120989285D01*
X118092143Y-121275000D01*
X118449286Y-120167857D02*
X118449286Y-120525000D01*
X117699286Y-120525000D01*
X118235000Y-119953571D02*
X118235000Y-119596428D01*
X118449286Y-120024999D02*
X117699286Y-119774999D01*
X118449286Y-119524999D01*
X118092143Y-119132142D02*
X118449286Y-119132142D01*
X117699286Y-119382142D02*
X118092143Y-119132142D01*
X117699286Y-118882142D01*
X118449286Y-118060714D02*
X117699286Y-118060714D01*
X117699286Y-117774999D01*
X117735000Y-117703571D01*
X117770714Y-117667856D01*
X117842143Y-117632142D01*
X117949286Y-117632142D01*
X118020714Y-117667856D01*
X118056429Y-117703571D01*
X118092143Y-117774999D01*
X118092143Y-118060714D01*
X118449286Y-117310714D02*
X117699286Y-117310714D01*
X118449286Y-116953571D02*
X117699286Y-116953571D01*
X118449286Y-116524999D01*
X117699286Y-116524999D01*
X118413571Y-116203571D02*
X118449286Y-116096428D01*
X118449286Y-115917857D01*
X118413571Y-115846428D01*
X118377857Y-115810714D01*
X118306429Y-115774999D01*
X118235000Y-115774999D01*
X118163571Y-115810714D01*
X118127857Y-115846428D01*
X118092143Y-115917857D01*
X118056429Y-116060714D01*
X118020714Y-116132142D01*
X117985000Y-116167857D01*
X117913571Y-116203571D01*
X117842143Y-116203571D01*
X117770714Y-116167857D01*
X117735000Y-116132142D01*
X117699286Y-116060714D01*
X117699286Y-115882142D01*
X117735000Y-115774999D01*
X112331571Y-123529286D02*
X112331571Y-122779286D01*
X112510143Y-122779286D01*
X112617286Y-122815000D01*
X112688714Y-122886429D01*
X112724429Y-122957857D01*
X112760143Y-123100714D01*
X112760143Y-123207857D01*
X112724429Y-123350714D01*
X112688714Y-123422143D01*
X112617286Y-123493571D01*
X112510143Y-123529286D01*
X112331571Y-123529286D01*
X113510143Y-123457857D02*
X113474429Y-123493571D01*
X113367286Y-123529286D01*
X113295857Y-123529286D01*
X113188714Y-123493571D01*
X113117286Y-123422143D01*
X113081571Y-123350714D01*
X113045857Y-123207857D01*
X113045857Y-123100714D01*
X113081571Y-122957857D01*
X113117286Y-122886429D01*
X113188714Y-122815000D01*
X113295857Y-122779286D01*
X113367286Y-122779286D01*
X113474429Y-122815000D01*
X113510143Y-122850714D01*
X112651000Y-125997857D02*
X112615286Y-126033571D01*
X112508143Y-126069286D01*
X112436714Y-126069286D01*
X112329571Y-126033571D01*
X112258143Y-125962143D01*
X112222428Y-125890714D01*
X112186714Y-125747857D01*
X112186714Y-125640714D01*
X112222428Y-125497857D01*
X112258143Y-125426429D01*
X112329571Y-125355000D01*
X112436714Y-125319286D01*
X112508143Y-125319286D01*
X112615286Y-125355000D01*
X112651000Y-125390714D01*
X112936714Y-126033571D02*
X113043857Y-126069286D01*
X113222428Y-126069286D01*
X113293857Y-126033571D01*
X113329571Y-125997857D01*
X113365286Y-125926429D01*
X113365286Y-125855000D01*
X113329571Y-125783571D01*
X113293857Y-125747857D01*
X113222428Y-125712143D01*
X113079571Y-125676429D01*
X113008143Y-125640714D01*
X112972428Y-125605000D01*
X112936714Y-125533571D01*
X112936714Y-125462143D01*
X112972428Y-125390714D01*
X113008143Y-125355000D01*
X113079571Y-125319286D01*
X113258143Y-125319286D01*
X113365286Y-125355000D01*
X112331572Y-135642000D02*
X112260143Y-135606286D01*
X112153000Y-135606286D01*
X112045857Y-135642000D01*
X111974429Y-135713429D01*
X111938714Y-135784857D01*
X111903000Y-135927714D01*
X111903000Y-136034857D01*
X111938714Y-136177714D01*
X111974429Y-136249143D01*
X112045857Y-136320571D01*
X112153000Y-136356286D01*
X112224429Y-136356286D01*
X112331572Y-136320571D01*
X112367286Y-136284857D01*
X112367286Y-136034857D01*
X112224429Y-136034857D01*
X112688714Y-136356286D02*
X112688714Y-135606286D01*
X113117286Y-136356286D01*
X113117286Y-135606286D01*
X113474428Y-136356286D02*
X113474428Y-135606286D01*
X113653000Y-135606286D01*
X113760143Y-135642000D01*
X113831571Y-135713429D01*
X113867286Y-135784857D01*
X113903000Y-135927714D01*
X113903000Y-136034857D01*
X113867286Y-136177714D01*
X113831571Y-136249143D01*
X113760143Y-136320571D01*
X113653000Y-136356286D01*
X113474428Y-136356286D01*
X112137144Y-115159286D02*
X112387144Y-115909286D01*
X112637144Y-115159286D01*
X113208572Y-115873571D02*
X113137143Y-115909286D01*
X112994286Y-115909286D01*
X112922858Y-115873571D01*
X112887143Y-115837857D01*
X112851429Y-115766429D01*
X112851429Y-115552143D01*
X112887143Y-115480714D01*
X112922858Y-115445000D01*
X112994286Y-115409286D01*
X113137143Y-115409286D01*
X113208572Y-115445000D01*
X113851429Y-115873571D02*
X113780000Y-115909286D01*
X113637143Y-115909286D01*
X113565715Y-115873571D01*
X113530000Y-115837857D01*
X113494286Y-115766429D01*
X113494286Y-115552143D01*
X113530000Y-115480714D01*
X113565715Y-115445000D01*
X113637143Y-115409286D01*
X113780000Y-115409286D01*
X113851429Y-115445000D01*
X112280000Y-113242286D02*
X111922857Y-113242286D01*
X111922857Y-112492286D01*
X112815715Y-113206571D02*
X112744286Y-113242286D01*
X112601429Y-113242286D01*
X112530000Y-113206571D01*
X112494286Y-113135143D01*
X112494286Y-112849429D01*
X112530000Y-112778000D01*
X112601429Y-112742286D01*
X112744286Y-112742286D01*
X112815715Y-112778000D01*
X112851429Y-112849429D01*
X112851429Y-112920857D01*
X112494286Y-112992286D01*
X113494286Y-113242286D02*
X113494286Y-112492286D01*
X113494286Y-113206571D02*
X113422857Y-113242286D01*
X113280000Y-113242286D01*
X113208572Y-113206571D01*
X113172857Y-113170857D01*
X113137143Y-113099429D01*
X113137143Y-112885143D01*
X113172857Y-112813714D01*
X113208572Y-112778000D01*
X113280000Y-112742286D01*
X113422857Y-112742286D01*
X113494286Y-112778000D01*
X113815714Y-113028000D02*
X114172857Y-113028000D01*
X113744286Y-113242286D02*
X113994286Y-112492286D01*
X114244286Y-113242286D01*
X112226429Y-110702286D02*
X111869286Y-110702286D01*
X111869286Y-109952286D01*
X112762144Y-110666571D02*
X112690715Y-110702286D01*
X112547858Y-110702286D01*
X112476429Y-110666571D01*
X112440715Y-110595143D01*
X112440715Y-110309429D01*
X112476429Y-110238000D01*
X112547858Y-110202286D01*
X112690715Y-110202286D01*
X112762144Y-110238000D01*
X112797858Y-110309429D01*
X112797858Y-110380857D01*
X112440715Y-110452286D01*
X113440715Y-110702286D02*
X113440715Y-109952286D01*
X113440715Y-110666571D02*
X113369286Y-110702286D01*
X113226429Y-110702286D01*
X113155001Y-110666571D01*
X113119286Y-110630857D01*
X113083572Y-110559429D01*
X113083572Y-110345143D01*
X113119286Y-110273714D01*
X113155001Y-110238000D01*
X113226429Y-110202286D01*
X113369286Y-110202286D01*
X113440715Y-110238000D01*
X113797857Y-110702286D02*
X113797857Y-109952286D01*
X114226429Y-110702286D02*
X113905000Y-110273714D01*
X114226429Y-109952286D02*
X113797857Y-110380857D01*
X112458572Y-120275000D02*
X112387143Y-120239286D01*
X112280000Y-120239286D01*
X112172857Y-120275000D01*
X112101429Y-120346429D01*
X112065714Y-120417857D01*
X112030000Y-120560714D01*
X112030000Y-120667857D01*
X112065714Y-120810714D01*
X112101429Y-120882143D01*
X112172857Y-120953571D01*
X112280000Y-120989286D01*
X112351429Y-120989286D01*
X112458572Y-120953571D01*
X112494286Y-120917857D01*
X112494286Y-120667857D01*
X112351429Y-120667857D01*
X112815714Y-120989286D02*
X112815714Y-120239286D01*
X113244286Y-120989286D01*
X113244286Y-120239286D01*
X113601428Y-120989286D02*
X113601428Y-120239286D01*
X113780000Y-120239286D01*
X113887143Y-120275000D01*
X113958571Y-120346429D01*
X113994286Y-120417857D01*
X114030000Y-120560714D01*
X114030000Y-120667857D01*
X113994286Y-120810714D01*
X113958571Y-120882143D01*
X113887143Y-120953571D01*
X113780000Y-120989286D01*
X113601428Y-120989286D01*
X112458572Y-117608000D02*
X112387143Y-117572286D01*
X112280000Y-117572286D01*
X112172857Y-117608000D01*
X112101429Y-117679429D01*
X112065714Y-117750857D01*
X112030000Y-117893714D01*
X112030000Y-118000857D01*
X112065714Y-118143714D01*
X112101429Y-118215143D01*
X112172857Y-118286571D01*
X112280000Y-118322286D01*
X112351429Y-118322286D01*
X112458572Y-118286571D01*
X112494286Y-118250857D01*
X112494286Y-118000857D01*
X112351429Y-118000857D01*
X112815714Y-118322286D02*
X112815714Y-117572286D01*
X113244286Y-118322286D01*
X113244286Y-117572286D01*
X113601428Y-118322286D02*
X113601428Y-117572286D01*
X113780000Y-117572286D01*
X113887143Y-117608000D01*
X113958571Y-117679429D01*
X113994286Y-117750857D01*
X114030000Y-117893714D01*
X114030000Y-118000857D01*
X113994286Y-118143714D01*
X113958571Y-118215143D01*
X113887143Y-118286571D01*
X113780000Y-118322286D01*
X113601428Y-118322286D01*
X112063714Y-128573571D02*
X112170857Y-128609286D01*
X112349428Y-128609286D01*
X112420857Y-128573571D01*
X112456571Y-128537857D01*
X112492286Y-128466429D01*
X112492286Y-128395000D01*
X112456571Y-128323571D01*
X112420857Y-128287857D01*
X112349428Y-128252143D01*
X112206571Y-128216429D01*
X112135143Y-128180714D01*
X112099428Y-128145000D01*
X112063714Y-128073571D01*
X112063714Y-128002143D01*
X112099428Y-127930714D01*
X112135143Y-127895000D01*
X112206571Y-127859286D01*
X112385143Y-127859286D01*
X112492286Y-127895000D01*
X113135143Y-128573571D02*
X113063714Y-128609286D01*
X112920857Y-128609286D01*
X112849429Y-128573571D01*
X112813714Y-128537857D01*
X112778000Y-128466429D01*
X112778000Y-128252143D01*
X112813714Y-128180714D01*
X112849429Y-128145000D01*
X112920857Y-128109286D01*
X113063714Y-128109286D01*
X113135143Y-128145000D01*
X113456571Y-128609286D02*
X113456571Y-127859286D01*
X113528000Y-128323571D02*
X113742286Y-128609286D01*
X113742286Y-128109286D02*
X113456571Y-128395000D01*
X111958571Y-131022286D02*
X111958571Y-130272286D01*
X112208571Y-130808000D01*
X112458571Y-130272286D01*
X112458571Y-131022286D01*
X112922857Y-131022286D02*
X112851429Y-130986571D01*
X112815714Y-130950857D01*
X112780000Y-130879429D01*
X112780000Y-130665143D01*
X112815714Y-130593714D01*
X112851429Y-130558000D01*
X112922857Y-130522286D01*
X113030000Y-130522286D01*
X113101429Y-130558000D01*
X113137143Y-130593714D01*
X113172857Y-130665143D01*
X113172857Y-130879429D01*
X113137143Y-130950857D01*
X113101429Y-130986571D01*
X113030000Y-131022286D01*
X112922857Y-131022286D01*
X113458571Y-130986571D02*
X113530000Y-131022286D01*
X113672857Y-131022286D01*
X113744285Y-130986571D01*
X113780000Y-130915143D01*
X113780000Y-130879429D01*
X113744285Y-130808000D01*
X113672857Y-130772286D01*
X113565714Y-130772286D01*
X113494285Y-130736571D01*
X113458571Y-130665143D01*
X113458571Y-130629429D01*
X113494285Y-130558000D01*
X113565714Y-130522286D01*
X113672857Y-130522286D01*
X113744285Y-130558000D01*
X114101428Y-131022286D02*
X114101428Y-130522286D01*
X114101428Y-130272286D02*
X114065714Y-130308000D01*
X114101428Y-130343714D01*
X114137143Y-130308000D01*
X114101428Y-130272286D01*
X114101428Y-130343714D01*
X112492286Y-133816286D02*
X112242286Y-133459143D01*
X112063714Y-133816286D02*
X112063714Y-133066286D01*
X112349429Y-133066286D01*
X112420857Y-133102000D01*
X112456572Y-133137714D01*
X112492286Y-133209143D01*
X112492286Y-133316286D01*
X112456572Y-133387714D01*
X112420857Y-133423429D01*
X112349429Y-133459143D01*
X112063714Y-133459143D01*
X112778000Y-133780571D02*
X112885143Y-133816286D01*
X113063714Y-133816286D01*
X113135143Y-133780571D01*
X113170857Y-133744857D01*
X113206572Y-133673429D01*
X113206572Y-133602000D01*
X113170857Y-133530571D01*
X113135143Y-133494857D01*
X113063714Y-133459143D01*
X112920857Y-133423429D01*
X112849429Y-133387714D01*
X112813714Y-133352000D01*
X112778000Y-133280571D01*
X112778000Y-133209143D01*
X112813714Y-133137714D01*
X112849429Y-133102000D01*
X112920857Y-133066286D01*
X113099429Y-133066286D01*
X113206572Y-133102000D01*
X113420858Y-133066286D02*
X113849429Y-133066286D01*
X113635143Y-133816286D02*
X113635143Y-133066286D01*
X112458572Y-107702000D02*
X112387143Y-107666286D01*
X112280000Y-107666286D01*
X112172857Y-107702000D01*
X112101429Y-107773429D01*
X112065714Y-107844857D01*
X112030000Y-107987714D01*
X112030000Y-108094857D01*
X112065714Y-108237714D01*
X112101429Y-108309143D01*
X112172857Y-108380571D01*
X112280000Y-108416286D01*
X112351429Y-108416286D01*
X112458572Y-108380571D01*
X112494286Y-108344857D01*
X112494286Y-108094857D01*
X112351429Y-108094857D01*
X112815714Y-108416286D02*
X112815714Y-107666286D01*
X113244286Y-108416286D01*
X113244286Y-107666286D01*
X113601428Y-108416286D02*
X113601428Y-107666286D01*
X113780000Y-107666286D01*
X113887143Y-107702000D01*
X113958571Y-107773429D01*
X113994286Y-107844857D01*
X114030000Y-107987714D01*
X114030000Y-108094857D01*
X113994286Y-108237714D01*
X113958571Y-108309143D01*
X113887143Y-108380571D01*
X113780000Y-108416286D01*
X113601428Y-108416286D01*
X147300786Y-119333429D02*
X146550786Y-119333429D01*
X147300786Y-118976286D02*
X146550786Y-118976286D01*
X146550786Y-118690571D01*
X146586500Y-118619143D01*
X146622214Y-118583428D01*
X146693643Y-118547714D01*
X146800786Y-118547714D01*
X146872214Y-118583428D01*
X146907929Y-118619143D01*
X146943643Y-118690571D01*
X146943643Y-118976286D01*
X147265071Y-118262000D02*
X147300786Y-118154857D01*
X147300786Y-117976286D01*
X147265071Y-117904857D01*
X147229357Y-117869143D01*
X147157929Y-117833428D01*
X147086500Y-117833428D01*
X147015071Y-117869143D01*
X146979357Y-117904857D01*
X146943643Y-117976286D01*
X146907929Y-118119143D01*
X146872214Y-118190571D01*
X146836500Y-118226286D01*
X146765071Y-118262000D01*
X146693643Y-118262000D01*
X146622214Y-118226286D01*
X146586500Y-118190571D01*
X146550786Y-118119143D01*
X146550786Y-117940571D01*
X146586500Y-117833428D01*
X147300786Y-116547713D02*
X147300786Y-116976285D01*
X147300786Y-116761999D02*
X146550786Y-116761999D01*
X146657929Y-116833428D01*
X146729357Y-116904856D01*
X146765071Y-116976285D01*
X147229357Y-116226285D02*
X147265071Y-116190570D01*
X147300786Y-116226285D01*
X147265071Y-116261999D01*
X147229357Y-116226285D01*
X147300786Y-116226285D01*
X146550786Y-115511999D02*
X146550786Y-115869142D01*
X146907929Y-115904856D01*
X146872214Y-115869142D01*
X146836500Y-115797713D01*
X146836500Y-115619142D01*
X146872214Y-115547713D01*
X146907929Y-115511999D01*
X146979357Y-115476284D01*
X147157929Y-115476284D01*
X147229357Y-115511999D01*
X147265071Y-115547713D01*
X147300786Y-115619142D01*
X147300786Y-115797713D01*
X147265071Y-115869142D01*
X147229357Y-115904856D01*
X146800786Y-114833427D02*
X147300786Y-114833427D01*
X146515071Y-115011998D02*
X147050786Y-115190570D01*
X147050786Y-114726284D01*
X146550786Y-114476284D02*
X146693643Y-114476284D01*
X146550786Y-114190570D02*
X146693643Y-114190570D01*
X146907929Y-113047712D02*
X146943643Y-112940569D01*
X146979357Y-112904854D01*
X147050786Y-112869140D01*
X147157929Y-112869140D01*
X147229357Y-112904854D01*
X147265071Y-112940569D01*
X147300786Y-113011997D01*
X147300786Y-113297712D01*
X146550786Y-113297712D01*
X146550786Y-113047712D01*
X146586500Y-112976283D01*
X146622214Y-112940569D01*
X146693643Y-112904854D01*
X146765071Y-112904854D01*
X146836500Y-112940569D01*
X146872214Y-112976283D01*
X146907929Y-113047712D01*
X146907929Y-113297712D01*
X147300786Y-112547712D02*
X146800786Y-112547712D01*
X146943643Y-112547712D02*
X146872214Y-112511997D01*
X146836500Y-112476283D01*
X146800786Y-112404854D01*
X146800786Y-112333426D01*
X147265071Y-111797711D02*
X147300786Y-111869140D01*
X147300786Y-112011997D01*
X147265071Y-112083426D01*
X147193643Y-112119140D01*
X146907929Y-112119140D01*
X146836500Y-112083426D01*
X146800786Y-112011997D01*
X146800786Y-111869140D01*
X146836500Y-111797711D01*
X146907929Y-111761997D01*
X146979357Y-111761997D01*
X147050786Y-112119140D01*
X147300786Y-111119140D02*
X146907929Y-111119140D01*
X146836500Y-111154854D01*
X146800786Y-111226283D01*
X146800786Y-111369140D01*
X146836500Y-111440569D01*
X147265071Y-111119140D02*
X147300786Y-111190569D01*
X147300786Y-111369140D01*
X147265071Y-111440569D01*
X147193643Y-111476283D01*
X147122214Y-111476283D01*
X147050786Y-111440569D01*
X147015071Y-111369140D01*
X147015071Y-111190569D01*
X146979357Y-111119140D01*
X147300786Y-110440569D02*
X146550786Y-110440569D01*
X147265071Y-110440569D02*
X147300786Y-110511998D01*
X147300786Y-110654855D01*
X147265071Y-110726283D01*
X147229357Y-110761998D01*
X147157929Y-110797712D01*
X146943643Y-110797712D01*
X146872214Y-110761998D01*
X146836500Y-110726283D01*
X146800786Y-110654855D01*
X146800786Y-110511998D01*
X146836500Y-110440569D01*
X147300786Y-110083427D02*
X146550786Y-110083427D01*
X146836500Y-110083427D02*
X146800786Y-110011998D01*
X146800786Y-109869141D01*
X146836500Y-109797712D01*
X146872214Y-109761998D01*
X146943643Y-109726284D01*
X147157929Y-109726284D01*
X147229357Y-109761998D01*
X147265071Y-109797712D01*
X147300786Y-109869141D01*
X147300786Y-110011998D01*
X147265071Y-110083427D01*
X147300786Y-109297713D02*
X147265071Y-109369141D01*
X147229357Y-109404856D01*
X147157929Y-109440570D01*
X146943643Y-109440570D01*
X146872214Y-109404856D01*
X146836500Y-109369141D01*
X146800786Y-109297713D01*
X146800786Y-109190570D01*
X146836500Y-109119141D01*
X146872214Y-109083427D01*
X146943643Y-109047713D01*
X147157929Y-109047713D01*
X147229357Y-109083427D01*
X147265071Y-109119141D01*
X147300786Y-109190570D01*
X147300786Y-109297713D01*
X147300786Y-108404856D02*
X146907929Y-108404856D01*
X146836500Y-108440570D01*
X146800786Y-108511999D01*
X146800786Y-108654856D01*
X146836500Y-108726285D01*
X147265071Y-108404856D02*
X147300786Y-108476285D01*
X147300786Y-108654856D01*
X147265071Y-108726285D01*
X147193643Y-108761999D01*
X147122214Y-108761999D01*
X147050786Y-108726285D01*
X147015071Y-108654856D01*
X147015071Y-108476285D01*
X146979357Y-108404856D01*
X147300786Y-108047714D02*
X146800786Y-108047714D01*
X146943643Y-108047714D02*
X146872214Y-108011999D01*
X146836500Y-107976285D01*
X146800786Y-107904856D01*
X146800786Y-107833428D01*
X147300786Y-107261999D02*
X146550786Y-107261999D01*
X147265071Y-107261999D02*
X147300786Y-107333428D01*
X147300786Y-107476285D01*
X147265071Y-107547713D01*
X147229357Y-107583428D01*
X147157929Y-107619142D01*
X146943643Y-107619142D01*
X146872214Y-107583428D01*
X146836500Y-107547713D01*
X146800786Y-107476285D01*
X146800786Y-107333428D01*
X146836500Y-107261999D01*
X147300786Y-106333428D02*
X146550786Y-106333428D01*
X146550786Y-106047713D01*
X146586500Y-105976285D01*
X146622214Y-105940570D01*
X146693643Y-105904856D01*
X146800786Y-105904856D01*
X146872214Y-105940570D01*
X146907929Y-105976285D01*
X146943643Y-106047713D01*
X146943643Y-106333428D01*
X147229357Y-105154856D02*
X147265071Y-105190570D01*
X147300786Y-105297713D01*
X147300786Y-105369142D01*
X147265071Y-105476285D01*
X147193643Y-105547713D01*
X147122214Y-105583428D01*
X146979357Y-105619142D01*
X146872214Y-105619142D01*
X146729357Y-105583428D01*
X146657929Y-105547713D01*
X146586500Y-105476285D01*
X146550786Y-105369142D01*
X146550786Y-105297713D01*
X146586500Y-105190570D01*
X146622214Y-105154856D01*
X146907929Y-104583428D02*
X146943643Y-104476285D01*
X146979357Y-104440570D01*
X147050786Y-104404856D01*
X147157929Y-104404856D01*
X147229357Y-104440570D01*
X147265071Y-104476285D01*
X147300786Y-104547713D01*
X147300786Y-104833428D01*
X146550786Y-104833428D01*
X146550786Y-104583428D01*
X146586500Y-104511999D01*
X146622214Y-104476285D01*
X146693643Y-104440570D01*
X146765071Y-104440570D01*
X146836500Y-104476285D01*
X146872214Y-104511999D01*
X146907929Y-104583428D01*
X146907929Y-104833428D01*
X147775786Y-115458428D02*
X148525786Y-115279857D01*
X147990071Y-115137000D01*
X148525786Y-114994142D01*
X147775786Y-114815571D01*
X148525786Y-114529857D02*
X148025786Y-114529857D01*
X147775786Y-114529857D02*
X147811500Y-114565571D01*
X147847214Y-114529857D01*
X147811500Y-114494142D01*
X147775786Y-114529857D01*
X147847214Y-114529857D01*
X148025786Y-114279856D02*
X148025786Y-113994142D01*
X147775786Y-114172714D02*
X148418643Y-114172714D01*
X148490071Y-114136999D01*
X148525786Y-114065571D01*
X148525786Y-113994142D01*
X148525786Y-113744143D02*
X147775786Y-113744143D01*
X148525786Y-113422714D02*
X148132929Y-113422714D01*
X148061500Y-113458428D01*
X148025786Y-113529857D01*
X148025786Y-113637000D01*
X148061500Y-113708428D01*
X148097214Y-113744143D01*
X147775786Y-112279857D02*
X148311500Y-112279857D01*
X148418643Y-112315571D01*
X148490071Y-112387000D01*
X148525786Y-112494143D01*
X148525786Y-112565571D01*
X148525786Y-111815571D02*
X148490071Y-111886999D01*
X148454357Y-111922714D01*
X148382929Y-111958428D01*
X148168643Y-111958428D01*
X148097214Y-111922714D01*
X148061500Y-111886999D01*
X148025786Y-111815571D01*
X148025786Y-111708428D01*
X148061500Y-111636999D01*
X148097214Y-111601285D01*
X148168643Y-111565571D01*
X148382929Y-111565571D01*
X148454357Y-111601285D01*
X148490071Y-111636999D01*
X148525786Y-111708428D01*
X148525786Y-111815571D01*
X148025786Y-111315571D02*
X148525786Y-111137000D01*
X148025786Y-110958428D02*
X148525786Y-111137000D01*
X148704357Y-111208428D01*
X148740071Y-111244143D01*
X148775786Y-111315571D01*
X148490071Y-110708428D02*
X148525786Y-110636999D01*
X148525786Y-110494142D01*
X148490071Y-110422714D01*
X148418643Y-110386999D01*
X148382929Y-110386999D01*
X148311500Y-110422714D01*
X148275786Y-110494142D01*
X148275786Y-110601285D01*
X148240071Y-110672714D01*
X148168643Y-110708428D01*
X148132929Y-110708428D01*
X148061500Y-110672714D01*
X148025786Y-110601285D01*
X148025786Y-110494142D01*
X148061500Y-110422714D01*
X148025786Y-110172713D02*
X148025786Y-109886999D01*
X147775786Y-110065571D02*
X148418643Y-110065571D01*
X148490071Y-110029856D01*
X148525786Y-109958428D01*
X148525786Y-109886999D01*
X148525786Y-109637000D02*
X148025786Y-109637000D01*
X147775786Y-109637000D02*
X147811500Y-109672714D01*
X147847214Y-109637000D01*
X147811500Y-109601285D01*
X147775786Y-109637000D01*
X147847214Y-109637000D01*
X148490071Y-108958428D02*
X148525786Y-109029857D01*
X148525786Y-109172714D01*
X148490071Y-109244142D01*
X148454357Y-109279857D01*
X148382929Y-109315571D01*
X148168643Y-109315571D01*
X148097214Y-109279857D01*
X148061500Y-109244142D01*
X148025786Y-109172714D01*
X148025786Y-109029857D01*
X148061500Y-108958428D01*
X148525786Y-108637000D02*
X147775786Y-108637000D01*
X148240071Y-108565571D02*
X148525786Y-108351285D01*
X148025786Y-108351285D02*
X148311500Y-108637000D01*
X128724714Y-103082286D02*
X128724714Y-102332286D01*
X128903286Y-102332286D01*
X129010429Y-102368000D01*
X129081857Y-102439429D01*
X129117572Y-102510857D01*
X129153286Y-102653714D01*
X129153286Y-102760857D01*
X129117572Y-102903714D01*
X129081857Y-102975143D01*
X129010429Y-103046571D01*
X128903286Y-103082286D01*
X128724714Y-103082286D01*
X129474714Y-103082286D02*
X129474714Y-102582286D01*
X129474714Y-102725143D02*
X129510429Y-102653714D01*
X129546143Y-102618000D01*
X129617572Y-102582286D01*
X129689000Y-102582286D01*
X130939001Y-103010857D02*
X130903287Y-103046571D01*
X130796144Y-103082286D01*
X130724715Y-103082286D01*
X130617572Y-103046571D01*
X130546144Y-102975143D01*
X130510429Y-102903714D01*
X130474715Y-102760857D01*
X130474715Y-102653714D01*
X130510429Y-102510857D01*
X130546144Y-102439429D01*
X130617572Y-102368000D01*
X130724715Y-102332286D01*
X130796144Y-102332286D01*
X130903287Y-102368000D01*
X130939001Y-102403714D01*
X131224715Y-102868000D02*
X131581858Y-102868000D01*
X131153287Y-103082286D02*
X131403287Y-102332286D01*
X131653287Y-103082286D01*
X131903286Y-103082286D02*
X131903286Y-102332286D01*
X132081858Y-102332286D01*
X132189001Y-102368000D01*
X132260429Y-102439429D01*
X132296144Y-102510857D01*
X132331858Y-102653714D01*
X132331858Y-102760857D01*
X132296144Y-102903714D01*
X132260429Y-102975143D01*
X132189001Y-103046571D01*
X132081858Y-103082286D01*
X131903286Y-103082286D01*
X132653286Y-103082286D02*
X132653286Y-102332286D01*
X133439001Y-103010857D02*
X133403287Y-103046571D01*
X133296144Y-103082286D01*
X133224715Y-103082286D01*
X133117572Y-103046571D01*
X133046144Y-102975143D01*
X133010429Y-102903714D01*
X132974715Y-102760857D01*
X132974715Y-102653714D01*
X133010429Y-102510857D01*
X133046144Y-102439429D01*
X133117572Y-102368000D01*
X133224715Y-102332286D01*
X133296144Y-102332286D01*
X133403287Y-102368000D01*
X133439001Y-102403714D01*
D11*
X147050000Y-142040000D02*
X145050000Y-142040000D01*
X145050000Y-139900000D02*
X147050000Y-139900000D01*
X119110000Y-144580000D02*
X117110000Y-144580000D01*
X117110000Y-142440000D02*
X119110000Y-142440000D01*
X147050000Y-144580000D02*
X145050000Y-144580000D01*
X145050000Y-142440000D02*
X147050000Y-142440000D01*
X119110000Y-140770000D02*
X117110000Y-140770000D01*
X117110000Y-138630000D02*
X119110000Y-138630000D01*
X145050000Y-137360000D02*
X147050000Y-137360000D01*
X147050000Y-139500000D02*
X145050000Y-139500000D01*
X114240000Y-109220000D02*
X114240000Y-137220000D01*
X114240000Y-137220000D02*
X116900000Y-137220000D01*
X116900000Y-137220000D02*
X116900000Y-109220000D01*
X116900000Y-109220000D02*
X114240000Y-109220000D01*
X114240000Y-107950000D02*
X114240000Y-106620000D01*
X114240000Y-106620000D02*
X115570000Y-106620000D01*
X147260000Y-124460000D02*
X147260000Y-134680000D01*
X147260000Y-134680000D02*
X149920000Y-134680000D01*
X149920000Y-134680000D02*
X149920000Y-124460000D01*
X149920000Y-124460000D02*
X147260000Y-124460000D01*
X147260000Y-123190000D02*
X147260000Y-121860000D01*
X147260000Y-121860000D02*
X148590000Y-121860000D01*
D10*
X125759771Y-140999771D02*
X132406575Y-134352967D01*
X132406575Y-134352967D02*
X140114039Y-142060431D01*
X140114039Y-142060431D02*
X132760128Y-149414342D01*
X132760128Y-149414342D02*
X125052664Y-141706878D01*
X125052664Y-141706878D02*
X125759771Y-140999771D01*
D12*
X120380000Y-132350000D02*
X120380000Y-133350000D01*
X142380000Y-132850000D02*
X142380000Y-133350000D01*
X142380000Y-132850000D02*
X142380000Y-130850000D01*
X142380000Y-130850000D02*
X140880000Y-127350000D01*
X140880000Y-127350000D02*
X140880000Y-119350000D01*
X140880000Y-119350000D02*
X129880000Y-119350000D01*
X129880000Y-119350000D02*
X129880000Y-127350000D01*
X129880000Y-127350000D02*
X120380000Y-132350000D01*
X119380000Y-133350000D02*
X119380000Y-104090000D01*
X119380000Y-104090000D02*
X145530000Y-104050000D01*
X145530000Y-104050000D02*
X145530000Y-133350000D01*
X145530000Y-133350000D02*
X119380000Y-133350000D01*
D11*
X142811500Y-136610400D02*
X145411500Y-136610400D01*
X145411500Y-136610400D02*
X145411500Y-133950400D01*
X145411500Y-133950400D02*
X142811500Y-133950400D01*
X142811500Y-133950400D02*
X142811500Y-136610400D01*
X141541500Y-136610400D02*
X140211500Y-136610400D01*
X140211500Y-136610400D02*
X140211500Y-135280400D01*
D12*
X139898572Y-138882381D02*
X139327143Y-138882381D01*
X139612857Y-138882381D02*
X139612857Y-137882381D01*
X139517619Y-138025238D01*
X139422381Y-138120476D01*
X139327143Y-138168095D01*
X140517619Y-137882381D02*
X140612858Y-137882381D01*
X140708096Y-137930000D01*
X140755715Y-137977619D01*
X140803334Y-138072857D01*
X140850953Y-138263333D01*
X140850953Y-138501429D01*
X140803334Y-138691905D01*
X140755715Y-138787143D01*
X140708096Y-138834762D01*
X140612858Y-138882381D01*
X140517619Y-138882381D01*
X140422381Y-138834762D01*
X140374762Y-138787143D01*
X140327143Y-138691905D01*
X140279524Y-138501429D01*
X140279524Y-138263333D01*
X140327143Y-138072857D01*
X140374762Y-137977619D01*
X140422381Y-137930000D01*
X140517619Y-137882381D01*
X141279524Y-138882381D02*
X141279524Y-137882381D01*
X141374762Y-138501429D02*
X141660477Y-138882381D01*
X141660477Y-138215714D02*
X141279524Y-138596667D01*
X142612858Y-138882381D02*
X142041429Y-138882381D01*
X142327143Y-138882381D02*
X142327143Y-137882381D01*
X142231905Y-138025238D01*
X142136667Y-138120476D01*
X142041429Y-138168095D01*
X122118572Y-143962381D02*
X121547143Y-143962381D01*
X121832857Y-143962381D02*
X121832857Y-142962381D01*
X121737619Y-143105238D01*
X121642381Y-143200476D01*
X121547143Y-143248095D01*
X122737619Y-142962381D02*
X122832858Y-142962381D01*
X122928096Y-143010000D01*
X122975715Y-143057619D01*
X123023334Y-143152857D01*
X123070953Y-143343333D01*
X123070953Y-143581429D01*
X123023334Y-143771905D01*
X122975715Y-143867143D01*
X122928096Y-143914762D01*
X122832858Y-143962381D01*
X122737619Y-143962381D01*
X122642381Y-143914762D01*
X122594762Y-143867143D01*
X122547143Y-143771905D01*
X122499524Y-143581429D01*
X122499524Y-143343333D01*
X122547143Y-143152857D01*
X122594762Y-143057619D01*
X122642381Y-143010000D01*
X122737619Y-142962381D01*
X123499524Y-143962381D02*
X123499524Y-142962381D01*
X123594762Y-143581429D02*
X123880477Y-143962381D01*
X123880477Y-143295714D02*
X123499524Y-143676667D01*
X124261429Y-143057619D02*
X124309048Y-143010000D01*
X124404286Y-142962381D01*
X124642382Y-142962381D01*
X124737620Y-143010000D01*
X124785239Y-143057619D01*
X124832858Y-143152857D01*
X124832858Y-143248095D01*
X124785239Y-143390952D01*
X124213810Y-143962381D01*
X124832858Y-143962381D01*
X139898572Y-143962381D02*
X139327143Y-143962381D01*
X139612857Y-143962381D02*
X139612857Y-142962381D01*
X139517619Y-143105238D01*
X139422381Y-143200476D01*
X139327143Y-143248095D01*
X140517619Y-142962381D02*
X140612858Y-142962381D01*
X140708096Y-143010000D01*
X140755715Y-143057619D01*
X140803334Y-143152857D01*
X140850953Y-143343333D01*
X140850953Y-143581429D01*
X140803334Y-143771905D01*
X140755715Y-143867143D01*
X140708096Y-143914762D01*
X140612858Y-143962381D01*
X140517619Y-143962381D01*
X140422381Y-143914762D01*
X140374762Y-143867143D01*
X140327143Y-143771905D01*
X140279524Y-143581429D01*
X140279524Y-143343333D01*
X140327143Y-143152857D01*
X140374762Y-143057619D01*
X140422381Y-143010000D01*
X140517619Y-142962381D01*
X141279524Y-143962381D02*
X141279524Y-142962381D01*
X141374762Y-143581429D02*
X141660477Y-143962381D01*
X141660477Y-143295714D02*
X141279524Y-143676667D01*
X141993810Y-142962381D02*
X142612858Y-142962381D01*
X142279524Y-143343333D01*
X142422382Y-143343333D01*
X142517620Y-143390952D01*
X142565239Y-143438571D01*
X142612858Y-143533810D01*
X142612858Y-143771905D01*
X142565239Y-143867143D01*
X142517620Y-143914762D01*
X142422382Y-143962381D01*
X142136667Y-143962381D01*
X142041429Y-143914762D01*
X141993810Y-143867143D01*
X122118572Y-140152381D02*
X121547143Y-140152381D01*
X121832857Y-140152381D02*
X121832857Y-139152381D01*
X121737619Y-139295238D01*
X121642381Y-139390476D01*
X121547143Y-139438095D01*
X122737619Y-139152381D02*
X122832858Y-139152381D01*
X122928096Y-139200000D01*
X122975715Y-139247619D01*
X123023334Y-139342857D01*
X123070953Y-139533333D01*
X123070953Y-139771429D01*
X123023334Y-139961905D01*
X122975715Y-140057143D01*
X122928096Y-140104762D01*
X122832858Y-140152381D01*
X122737619Y-140152381D01*
X122642381Y-140104762D01*
X122594762Y-140057143D01*
X122547143Y-139961905D01*
X122499524Y-139771429D01*
X122499524Y-139533333D01*
X122547143Y-139342857D01*
X122594762Y-139247619D01*
X122642381Y-139200000D01*
X122737619Y-139152381D01*
X123499524Y-140152381D02*
X123499524Y-139152381D01*
X123594762Y-139771429D02*
X123880477Y-140152381D01*
X123880477Y-139485714D02*
X123499524Y-139866667D01*
X124737620Y-139485714D02*
X124737620Y-140152381D01*
X124499524Y-139104762D02*
X124261429Y-139819048D01*
X124880477Y-139819048D01*
X139898572Y-141422381D02*
X139327143Y-141422381D01*
X139612857Y-141422381D02*
X139612857Y-140422381D01*
X139517619Y-140565238D01*
X139422381Y-140660476D01*
X139327143Y-140708095D01*
X140517619Y-140422381D02*
X140612858Y-140422381D01*
X140708096Y-140470000D01*
X140755715Y-140517619D01*
X140803334Y-140612857D01*
X140850953Y-140803333D01*
X140850953Y-141041429D01*
X140803334Y-141231905D01*
X140755715Y-141327143D01*
X140708096Y-141374762D01*
X140612858Y-141422381D01*
X140517619Y-141422381D01*
X140422381Y-141374762D01*
X140374762Y-141327143D01*
X140327143Y-141231905D01*
X140279524Y-141041429D01*
X140279524Y-140803333D01*
X140327143Y-140612857D01*
X140374762Y-140517619D01*
X140422381Y-140470000D01*
X140517619Y-140422381D01*
X141279524Y-141422381D02*
X141279524Y-140422381D01*
X141374762Y-141041429D02*
X141660477Y-141422381D01*
X141660477Y-140755714D02*
X141279524Y-141136667D01*
X142565239Y-140422381D02*
X142089048Y-140422381D01*
X142041429Y-140898571D01*
X142089048Y-140850952D01*
X142184286Y-140803333D01*
X142422382Y-140803333D01*
X142517620Y-140850952D01*
X142565239Y-140898571D01*
X142612858Y-140993810D01*
X142612858Y-141231905D01*
X142565239Y-141327143D01*
X142517620Y-141374762D01*
X142422382Y-141422381D01*
X142184286Y-141422381D01*
X142089048Y-141374762D01*
X142041429Y-141327143D01*
X115236667Y-105072381D02*
X115236667Y-105786667D01*
X115189047Y-105929524D01*
X115093809Y-106024762D01*
X114950952Y-106072381D01*
X114855714Y-106072381D01*
X116236667Y-106072381D02*
X115665238Y-106072381D01*
X115950952Y-106072381D02*
X115950952Y-105072381D01*
X115855714Y-105215238D01*
X115760476Y-105310476D01*
X115665238Y-105358095D01*
X147423334Y-120312381D02*
X147423334Y-121026667D01*
X147375714Y-121169524D01*
X147280476Y-121264762D01*
X147137619Y-121312381D01*
X147042381Y-121312381D01*
X148042381Y-121312381D02*
X147947143Y-121264762D01*
X147899524Y-121217143D01*
X147851905Y-121121905D01*
X147851905Y-120836190D01*
X147899524Y-120740952D01*
X147947143Y-120693333D01*
X148042381Y-120645714D01*
X148185239Y-120645714D01*
X148280477Y-120693333D01*
X148328096Y-120740952D01*
X148375715Y-120836190D01*
X148375715Y-121121905D01*
X148328096Y-121217143D01*
X148280477Y-121264762D01*
X148185239Y-121312381D01*
X148042381Y-121312381D01*
X148709048Y-120645714D02*
X148947143Y-121312381D01*
X149185239Y-120645714D02*
X148947143Y-121312381D01*
X148851905Y-121550476D01*
X148804286Y-121598095D01*
X148709048Y-121645714D01*
X150090001Y-121312381D02*
X149518572Y-121312381D01*
X149804286Y-121312381D02*
X149804286Y-120312381D01*
X149709048Y-120455238D01*
X149613810Y-120550476D01*
X149518572Y-120598095D01*
X137088632Y-148062421D02*
X137223319Y-147995077D01*
X137391678Y-147826718D01*
X137425350Y-147725703D01*
X137425350Y-147658359D01*
X137391678Y-147557344D01*
X137324335Y-147490001D01*
X137223320Y-147456329D01*
X137155976Y-147456329D01*
X137054960Y-147490000D01*
X136886601Y-147591016D01*
X136785586Y-147624688D01*
X136718243Y-147624688D01*
X136617227Y-147591016D01*
X136549884Y-147523673D01*
X136516212Y-147422657D01*
X136516212Y-147355314D01*
X136549884Y-147254299D01*
X136718243Y-147085940D01*
X136852930Y-147018596D01*
X137054960Y-146749222D02*
X137930426Y-147287971D01*
X137560037Y-146648206D01*
X138199800Y-147018596D01*
X137661052Y-146143131D01*
X139007922Y-146210474D02*
X138603861Y-146614535D01*
X138805891Y-146412505D02*
X138098784Y-145705398D01*
X138132456Y-145873757D01*
X138132456Y-146008444D01*
X138098784Y-146109459D01*
X131231431Y-142248992D02*
X130894713Y-142585710D01*
X131197758Y-142956099D01*
X131197758Y-142888755D01*
X131231430Y-142787740D01*
X131399789Y-142619381D01*
X131500804Y-142585709D01*
X131568148Y-142585709D01*
X131669164Y-142619382D01*
X131837522Y-142787740D01*
X131871194Y-142888755D01*
X131871194Y-142956099D01*
X131837522Y-143057114D01*
X131669163Y-143225473D01*
X131568148Y-143259145D01*
X131500804Y-143259145D01*
X131736507Y-142215320D02*
X132342598Y-142552038D01*
X132140568Y-142080633D01*
X132611973Y-142282664D01*
X132275255Y-141676572D01*
X132948690Y-141878603D02*
X133049705Y-141844931D01*
X133184392Y-141710245D01*
X133218064Y-141609229D01*
X133184392Y-141508214D01*
X133150721Y-141474542D01*
X133049706Y-141440870D01*
X132948690Y-141474543D01*
X132847675Y-141575558D01*
X132746659Y-141609229D01*
X132645644Y-141575557D01*
X132611972Y-141541885D01*
X132578300Y-141440870D01*
X132611972Y-141339855D01*
X132712987Y-141238840D01*
X132814003Y-141205167D01*
X133049705Y-140902122D02*
X133655797Y-141238840D01*
X133453766Y-140767434D01*
X133925171Y-140969465D01*
X133588453Y-140363374D01*
X128544426Y-142248993D02*
X128140364Y-142653054D01*
X128342395Y-142451024D02*
X127635288Y-141743917D01*
X127668960Y-141912275D01*
X127668960Y-142046962D01*
X127635288Y-142147978D01*
X131118095Y-131302381D02*
X131118095Y-132111905D01*
X131165714Y-132207143D01*
X131213333Y-132254762D01*
X131308571Y-132302381D01*
X131499048Y-132302381D01*
X131594286Y-132254762D01*
X131641905Y-132207143D01*
X131689524Y-132111905D01*
X131689524Y-131302381D01*
X132689524Y-132302381D02*
X132118095Y-132302381D01*
X132403809Y-132302381D02*
X132403809Y-131302381D01*
X132308571Y-131445238D01*
X132213333Y-131540476D01*
X132118095Y-131588095D01*
X128058095Y-106517619D02*
X128105714Y-106470000D01*
X128200952Y-106422381D01*
X128439048Y-106422381D01*
X128534286Y-106470000D01*
X128581905Y-106517619D01*
X128629524Y-106612857D01*
X128629524Y-106708095D01*
X128581905Y-106850952D01*
X128010476Y-107422381D01*
X128629524Y-107422381D01*
X129486667Y-106755714D02*
X129486667Y-107422381D01*
X129248571Y-106374762D02*
X129010476Y-107089048D01*
X129629524Y-107089048D01*
X130200952Y-106422381D02*
X130296191Y-106422381D01*
X130391429Y-106470000D01*
X130439048Y-106517619D01*
X130486667Y-106612857D01*
X130534286Y-106803333D01*
X130534286Y-107041429D01*
X130486667Y-107231905D01*
X130439048Y-107327143D01*
X130391429Y-107374762D01*
X130296191Y-107422381D01*
X130200952Y-107422381D01*
X130105714Y-107374762D01*
X130058095Y-107327143D01*
X130010476Y-107231905D01*
X129962857Y-107041429D01*
X129962857Y-106803333D01*
X130010476Y-106612857D01*
X130058095Y-106517619D01*
X130105714Y-106470000D01*
X130200952Y-106422381D01*
X130867619Y-107422381D02*
X131391429Y-106755714D01*
X130867619Y-106755714D02*
X131391429Y-107422381D01*
X131724762Y-106517619D02*
X131772381Y-106470000D01*
X131867619Y-106422381D01*
X132105715Y-106422381D01*
X132200953Y-106470000D01*
X132248572Y-106517619D01*
X132296191Y-106612857D01*
X132296191Y-106708095D01*
X132248572Y-106850952D01*
X131677143Y-107422381D01*
X132296191Y-107422381D01*
X133153334Y-106755714D02*
X133153334Y-107422381D01*
X132915238Y-106374762D02*
X132677143Y-107089048D01*
X133296191Y-107089048D01*
X133867619Y-106422381D02*
X133962858Y-106422381D01*
X134058096Y-106470000D01*
X134105715Y-106517619D01*
X134153334Y-106612857D01*
X134200953Y-106803333D01*
X134200953Y-107041429D01*
X134153334Y-107231905D01*
X134105715Y-107327143D01*
X134058096Y-107374762D01*
X133962858Y-107422381D01*
X133867619Y-107422381D01*
X133772381Y-107374762D01*
X133724762Y-107327143D01*
X133677143Y-107231905D01*
X133629524Y-107041429D01*
X133629524Y-106803333D01*
X133677143Y-106612857D01*
X133724762Y-106517619D01*
X133772381Y-106470000D01*
X133867619Y-106422381D01*
X134486667Y-106422381D02*
X135058096Y-106422381D01*
X134772381Y-107422381D02*
X134772381Y-106422381D01*
X135724763Y-106898571D02*
X135391429Y-106898571D01*
X135391429Y-107422381D02*
X135391429Y-106422381D01*
X135867620Y-106422381D01*
X136105715Y-106422381D02*
X136677144Y-106422381D01*
X136391429Y-107422381D02*
X136391429Y-106422381D01*
X138663881Y-135613733D02*
X139378167Y-135613733D01*
X139521024Y-135661353D01*
X139616262Y-135756591D01*
X139663881Y-135899448D01*
X139663881Y-135994686D01*
X138759119Y-135185162D02*
X138711500Y-135137543D01*
X138663881Y-135042305D01*
X138663881Y-134804209D01*
X138711500Y-134708971D01*
X138759119Y-134661352D01*
X138854357Y-134613733D01*
X138949595Y-134613733D01*
X139092452Y-134661352D01*
X139663881Y-135232781D01*
X139663881Y-134613733D01*
X140682909Y-132773681D02*
X140682909Y-131773681D01*
X141063862Y-131773681D01*
X141159100Y-131821300D01*
X141206719Y-131868919D01*
X141254338Y-131964157D01*
X141254338Y-132107014D01*
X141206719Y-132202252D01*
X141159100Y-132249871D01*
X141063862Y-132297490D01*
X140682909Y-132297490D01*
X141825766Y-132773681D02*
X141730528Y-132726062D01*
X141682909Y-132678443D01*
X141635290Y-132583205D01*
X141635290Y-132297490D01*
X141682909Y-132202252D01*
X141730528Y-132154633D01*
X141825766Y-132107014D01*
X141968624Y-132107014D01*
X142063862Y-132154633D01*
X142111481Y-132202252D01*
X142159100Y-132297490D01*
X142159100Y-132583205D01*
X142111481Y-132678443D01*
X142063862Y-132726062D01*
X141968624Y-132773681D01*
X141825766Y-132773681D01*
X142492433Y-132107014D02*
X142682909Y-132773681D01*
X142873386Y-132297490D01*
X143063862Y-132773681D01*
X143254338Y-132107014D01*
X144016243Y-132726062D02*
X143921005Y-132773681D01*
X143730528Y-132773681D01*
X143635290Y-132726062D01*
X143587671Y-132630824D01*
X143587671Y-132249871D01*
X143635290Y-132154633D01*
X143730528Y-132107014D01*
X143921005Y-132107014D01*
X144016243Y-132154633D01*
X144063862Y-132249871D01*
X144063862Y-132345110D01*
X143587671Y-132440348D01*
X144492433Y-132773681D02*
X144492433Y-132107014D01*
X144492433Y-132297490D02*
X144540052Y-132202252D01*
X144587671Y-132154633D01*
X144682909Y-132107014D01*
X144778148Y-132107014D01*
M02*
