G04 #@! TF.FileFunction,Copper,L2,Bot,Signal*
%FSLAX46Y46*%
G04 Gerber Fmt 4.6, Leading zero omitted, Abs format (unit mm)*
G04 Created by KiCad (PCBNEW 4.0.7) date 04/18/19 12:47:30*
%MOMM*%
%LPD*%
G01*
G04 APERTURE LIST*
%ADD10C,0.100000*%
%ADD11R,1.700000X1.700000*%
%ADD12O,1.700000X1.700000*%
%ADD13C,0.600000*%
%ADD14C,0.250000*%
%ADD15C,0.254000*%
G04 APERTURE END LIST*
D10*
D11*
X115570000Y-107950000D03*
D12*
X115570000Y-110490000D03*
X115570000Y-113030000D03*
X115570000Y-115570000D03*
X115570000Y-118110000D03*
X115570000Y-120650000D03*
X115570000Y-123190000D03*
X115570000Y-125730000D03*
X115570000Y-128270000D03*
X115570000Y-130810000D03*
X115570000Y-133350000D03*
X115570000Y-135890000D03*
D11*
X148590000Y-123190000D03*
D12*
X148590000Y-125730000D03*
X148590000Y-128270000D03*
X148590000Y-130810000D03*
X148590000Y-133350000D03*
D11*
X141541500Y-135280400D03*
D12*
X144081500Y-135280400D03*
D13*
X150495000Y-129286000D03*
X136271000Y-125857000D03*
X138049000Y-125603000D03*
X117983000Y-139573000D03*
X149225000Y-136144000D03*
X138176000Y-136017000D03*
X135636000Y-135890000D03*
X131318000Y-118364000D03*
X136271000Y-118491000D03*
D14*
X149733000Y-123063000D02*
X148717000Y-123063000D01*
X150495000Y-123825000D02*
X149733000Y-123063000D01*
X150495000Y-129286000D02*
X150495000Y-123825000D01*
X148717000Y-123063000D02*
X148590000Y-123190000D01*
X136271000Y-125857000D02*
X136779000Y-125349000D01*
X136779000Y-125349000D02*
X137795000Y-125349000D01*
X137795000Y-125349000D02*
X138049000Y-125603000D01*
X133604000Y-133350000D02*
X148590000Y-133350000D01*
X131064000Y-135890000D02*
X133604000Y-133350000D01*
X121666000Y-135890000D02*
X131064000Y-135890000D01*
X117983000Y-139573000D02*
X121666000Y-135890000D01*
X147320000Y-130810000D02*
X148590000Y-130810000D01*
X146431000Y-129921000D02*
X147320000Y-130810000D01*
X146431000Y-127000000D02*
X146431000Y-129921000D01*
X146177000Y-126746000D02*
X146431000Y-127000000D01*
X146177000Y-121412000D02*
X146177000Y-126746000D01*
X147066000Y-120523000D02*
X146177000Y-121412000D01*
X149987000Y-120523000D02*
X147066000Y-120523000D01*
X151511000Y-122047000D02*
X149987000Y-120523000D01*
X151511000Y-132715000D02*
X151511000Y-122047000D01*
X150241000Y-133985000D02*
X151511000Y-132715000D01*
X150241000Y-135128000D02*
X150241000Y-133985000D01*
X149225000Y-136144000D02*
X150241000Y-135128000D01*
X135763000Y-136017000D02*
X138176000Y-136017000D01*
X135636000Y-135890000D02*
X135763000Y-136017000D01*
X131826000Y-117856000D02*
X131318000Y-118364000D01*
X135636000Y-117856000D02*
X131826000Y-117856000D01*
X136271000Y-118491000D02*
X135636000Y-117856000D01*
D15*
G36*
X148087954Y-102367954D02*
X147544711Y-103180976D01*
X147353949Y-104140000D01*
X147544711Y-105099024D01*
X148087954Y-105912046D01*
X148900976Y-106455289D01*
X149860000Y-106646051D01*
X150819024Y-106455289D01*
X151632046Y-105912046D01*
X151690000Y-105825312D01*
X151690000Y-121151198D01*
X150524401Y-119985599D01*
X150277839Y-119820852D01*
X149987000Y-119763000D01*
X147066000Y-119763000D01*
X146775161Y-119820852D01*
X146528599Y-119985599D01*
X145639599Y-120874599D01*
X145474852Y-121121161D01*
X145417000Y-121412000D01*
X145417000Y-126746000D01*
X145474852Y-127036839D01*
X145639599Y-127283401D01*
X145671000Y-127314802D01*
X145671000Y-129921000D01*
X145728852Y-130211839D01*
X145893599Y-130458401D01*
X146782599Y-131347401D01*
X147029161Y-131512148D01*
X147316593Y-131569322D01*
X147510853Y-131860054D01*
X147840026Y-132080000D01*
X147510853Y-132299946D01*
X147317046Y-132590000D01*
X133604000Y-132590000D01*
X133361414Y-132638254D01*
X133313160Y-132647852D01*
X133066599Y-132812599D01*
X130749198Y-135130000D01*
X121666000Y-135130000D01*
X121375161Y-135187852D01*
X121128599Y-135352599D01*
X117843320Y-138637878D01*
X117797833Y-138637838D01*
X117454057Y-138779883D01*
X117190808Y-139042673D01*
X117048162Y-139386201D01*
X117047838Y-139758167D01*
X117189883Y-140101943D01*
X117452673Y-140365192D01*
X117796201Y-140507838D01*
X118168167Y-140508162D01*
X118511943Y-140366117D01*
X118775192Y-140103327D01*
X118917838Y-139759799D01*
X118917879Y-139712923D01*
X121980802Y-136650000D01*
X131064000Y-136650000D01*
X131354839Y-136592148D01*
X131601401Y-136427401D01*
X131953635Y-136075167D01*
X134700838Y-136075167D01*
X134842883Y-136418943D01*
X135105673Y-136682192D01*
X135449201Y-136824838D01*
X135821167Y-136825162D01*
X135937728Y-136777000D01*
X137613537Y-136777000D01*
X137645673Y-136809192D01*
X137989201Y-136951838D01*
X138361167Y-136952162D01*
X138704943Y-136810117D01*
X138968192Y-136547327D01*
X139110838Y-136203799D01*
X139111162Y-135831833D01*
X138969117Y-135488057D01*
X138706327Y-135224808D01*
X138362799Y-135082162D01*
X137990833Y-135081838D01*
X137647057Y-135223883D01*
X137613882Y-135257000D01*
X136325241Y-135257000D01*
X136166327Y-135097808D01*
X135822799Y-134955162D01*
X135450833Y-134954838D01*
X135107057Y-135096883D01*
X134843808Y-135359673D01*
X134701162Y-135703201D01*
X134700838Y-136075167D01*
X131953635Y-136075167D01*
X133918802Y-134110000D01*
X140141880Y-134110000D01*
X140095069Y-134178510D01*
X140044060Y-134430400D01*
X140044060Y-136130400D01*
X140088338Y-136365717D01*
X140227410Y-136581841D01*
X140439610Y-136726831D01*
X140691500Y-136777840D01*
X142391500Y-136777840D01*
X142626817Y-136733562D01*
X142842941Y-136594490D01*
X142987931Y-136382290D01*
X143009801Y-136274293D01*
X143314576Y-136552045D01*
X143724610Y-136721876D01*
X143954500Y-136600555D01*
X143954500Y-135407400D01*
X144208500Y-135407400D01*
X144208500Y-136600555D01*
X144438390Y-136721876D01*
X144848424Y-136552045D01*
X145276683Y-136161758D01*
X145522986Y-135637292D01*
X145402319Y-135407400D01*
X144208500Y-135407400D01*
X143954500Y-135407400D01*
X143934500Y-135407400D01*
X143934500Y-135153400D01*
X143954500Y-135153400D01*
X143954500Y-135133400D01*
X144208500Y-135133400D01*
X144208500Y-135153400D01*
X145402319Y-135153400D01*
X145522986Y-134923508D01*
X145276683Y-134399042D01*
X144959519Y-134110000D01*
X147317046Y-134110000D01*
X147510853Y-134400054D01*
X147992622Y-134721961D01*
X148560907Y-134835000D01*
X148619093Y-134835000D01*
X149187378Y-134721961D01*
X149481000Y-134525770D01*
X149481000Y-134813198D01*
X149085320Y-135208878D01*
X149039833Y-135208838D01*
X148696057Y-135350883D01*
X148432808Y-135613673D01*
X148290162Y-135957201D01*
X148289838Y-136329167D01*
X148431883Y-136672943D01*
X148694673Y-136936192D01*
X149038201Y-137078838D01*
X149410167Y-137079162D01*
X149753943Y-136937117D01*
X150017192Y-136674327D01*
X150159838Y-136330799D01*
X150159879Y-136283923D01*
X150778401Y-135665401D01*
X150943148Y-135418839D01*
X151001000Y-135128000D01*
X151001000Y-134299802D01*
X151690000Y-133610802D01*
X151690000Y-145634688D01*
X151632046Y-145547954D01*
X150819024Y-145004711D01*
X149860000Y-144813949D01*
X148900976Y-145004711D01*
X148087954Y-145547954D01*
X147544711Y-146360976D01*
X147353949Y-147320000D01*
X147544711Y-148279024D01*
X148087954Y-149092046D01*
X148174688Y-149150000D01*
X115985312Y-149150000D01*
X116072046Y-149092046D01*
X116615289Y-148279024D01*
X116806051Y-147320000D01*
X116615289Y-146360976D01*
X116072046Y-145547954D01*
X115259024Y-145004711D01*
X114300000Y-144813949D01*
X113340976Y-145004711D01*
X112527954Y-145547954D01*
X112470000Y-145634688D01*
X112470000Y-143426479D01*
X132777004Y-143426479D01*
X132957030Y-143862174D01*
X133290085Y-144195811D01*
X133725465Y-144376596D01*
X134196887Y-144377008D01*
X134632582Y-144196982D01*
X134966219Y-143863927D01*
X135147004Y-143428547D01*
X135147416Y-142957125D01*
X134967390Y-142521430D01*
X134634335Y-142187793D01*
X134198955Y-142007008D01*
X133727533Y-142006596D01*
X133291838Y-142186622D01*
X132958201Y-142519677D01*
X132777416Y-142955057D01*
X132777004Y-143426479D01*
X112470000Y-143426479D01*
X112470000Y-140705806D01*
X130260028Y-140705806D01*
X130414227Y-141078996D01*
X130699502Y-141364769D01*
X131072422Y-141519619D01*
X131476214Y-141519972D01*
X131849404Y-141365773D01*
X132135177Y-141080498D01*
X132290027Y-140707578D01*
X132290380Y-140303786D01*
X132136181Y-139930596D01*
X131850906Y-139644823D01*
X131477986Y-139489973D01*
X131074194Y-139489620D01*
X130701004Y-139643819D01*
X130415231Y-139929094D01*
X130260381Y-140302014D01*
X130260028Y-140705806D01*
X112470000Y-140705806D01*
X112470000Y-136246890D01*
X114128524Y-136246890D01*
X114298355Y-136656924D01*
X114688642Y-137085183D01*
X115213108Y-137331486D01*
X115443000Y-137210819D01*
X115443000Y-136017000D01*
X115697000Y-136017000D01*
X115697000Y-137210819D01*
X115926892Y-137331486D01*
X116451358Y-137085183D01*
X116841645Y-136656924D01*
X117011476Y-136246890D01*
X116890155Y-136017000D01*
X115697000Y-136017000D01*
X115443000Y-136017000D01*
X114249845Y-136017000D01*
X114128524Y-136246890D01*
X112470000Y-136246890D01*
X112470000Y-123190000D01*
X114055907Y-123190000D01*
X114168946Y-123758285D01*
X114490853Y-124240054D01*
X114820026Y-124460000D01*
X114490853Y-124679946D01*
X114168946Y-125161715D01*
X114055907Y-125730000D01*
X114168946Y-126298285D01*
X114490853Y-126780054D01*
X114820026Y-127000000D01*
X114490853Y-127219946D01*
X114168946Y-127701715D01*
X114055907Y-128270000D01*
X114168946Y-128838285D01*
X114490853Y-129320054D01*
X114820026Y-129540000D01*
X114490853Y-129759946D01*
X114168946Y-130241715D01*
X114055907Y-130810000D01*
X114168946Y-131378285D01*
X114490853Y-131860054D01*
X114820026Y-132080000D01*
X114490853Y-132299946D01*
X114168946Y-132781715D01*
X114055907Y-133350000D01*
X114168946Y-133918285D01*
X114490853Y-134400054D01*
X114831553Y-134627702D01*
X114688642Y-134694817D01*
X114298355Y-135123076D01*
X114128524Y-135533110D01*
X114249845Y-135763000D01*
X115443000Y-135763000D01*
X115443000Y-135743000D01*
X115697000Y-135743000D01*
X115697000Y-135763000D01*
X116890155Y-135763000D01*
X117011476Y-135533110D01*
X116841645Y-135123076D01*
X116451358Y-134694817D01*
X116308447Y-134627702D01*
X116649147Y-134400054D01*
X116971054Y-133918285D01*
X117084093Y-133350000D01*
X116971054Y-132781715D01*
X116649147Y-132299946D01*
X116319974Y-132080000D01*
X116649147Y-131860054D01*
X116971054Y-131378285D01*
X117084093Y-130810000D01*
X116971054Y-130241715D01*
X116649147Y-129759946D01*
X116319974Y-129540000D01*
X116649147Y-129320054D01*
X116971054Y-128838285D01*
X117084093Y-128270000D01*
X116971054Y-127701715D01*
X116649147Y-127219946D01*
X116319974Y-127000000D01*
X116649147Y-126780054D01*
X116971054Y-126298285D01*
X117021999Y-126042167D01*
X135335838Y-126042167D01*
X135477883Y-126385943D01*
X135740673Y-126649192D01*
X136084201Y-126791838D01*
X136456167Y-126792162D01*
X136799943Y-126650117D01*
X137063192Y-126387327D01*
X137178764Y-126109000D01*
X137246403Y-126109000D01*
X137255883Y-126131943D01*
X137518673Y-126395192D01*
X137862201Y-126537838D01*
X138234167Y-126538162D01*
X138577943Y-126396117D01*
X138841192Y-126133327D01*
X138983838Y-125789799D01*
X138984162Y-125417833D01*
X138842117Y-125074057D01*
X138579327Y-124810808D01*
X138235799Y-124668162D01*
X138117578Y-124668059D01*
X138085839Y-124646852D01*
X137795000Y-124589000D01*
X136779000Y-124589000D01*
X136488161Y-124646852D01*
X136427417Y-124687440D01*
X136241599Y-124811599D01*
X136131320Y-124921878D01*
X136085833Y-124921838D01*
X135742057Y-125063883D01*
X135478808Y-125326673D01*
X135336162Y-125670201D01*
X135335838Y-126042167D01*
X117021999Y-126042167D01*
X117084093Y-125730000D01*
X116971054Y-125161715D01*
X116649147Y-124679946D01*
X116319974Y-124460000D01*
X116649147Y-124240054D01*
X116971054Y-123758285D01*
X117084093Y-123190000D01*
X116971054Y-122621715D01*
X116649147Y-122139946D01*
X116308447Y-121912298D01*
X116451358Y-121845183D01*
X116841645Y-121416924D01*
X117011476Y-121006890D01*
X116890155Y-120777000D01*
X115697000Y-120777000D01*
X115697000Y-120797000D01*
X115443000Y-120797000D01*
X115443000Y-120777000D01*
X114249845Y-120777000D01*
X114128524Y-121006890D01*
X114298355Y-121416924D01*
X114688642Y-121845183D01*
X114831553Y-121912298D01*
X114490853Y-122139946D01*
X114168946Y-122621715D01*
X114055907Y-123190000D01*
X112470000Y-123190000D01*
X112470000Y-118466890D01*
X114128524Y-118466890D01*
X114298355Y-118876924D01*
X114688642Y-119305183D01*
X114847954Y-119380000D01*
X114688642Y-119454817D01*
X114298355Y-119883076D01*
X114128524Y-120293110D01*
X114249845Y-120523000D01*
X115443000Y-120523000D01*
X115443000Y-118237000D01*
X115697000Y-118237000D01*
X115697000Y-120523000D01*
X116890155Y-120523000D01*
X117011476Y-120293110D01*
X116841645Y-119883076D01*
X116451358Y-119454817D01*
X116292046Y-119380000D01*
X116451358Y-119305183D01*
X116841645Y-118876924D01*
X117011476Y-118466890D01*
X116890155Y-118237000D01*
X115697000Y-118237000D01*
X115443000Y-118237000D01*
X114249845Y-118237000D01*
X114128524Y-118466890D01*
X112470000Y-118466890D01*
X112470000Y-110490000D01*
X114055907Y-110490000D01*
X114168946Y-111058285D01*
X114490853Y-111540054D01*
X114820026Y-111760000D01*
X114490853Y-111979946D01*
X114168946Y-112461715D01*
X114055907Y-113030000D01*
X114168946Y-113598285D01*
X114490853Y-114080054D01*
X114820026Y-114300000D01*
X114490853Y-114519946D01*
X114168946Y-115001715D01*
X114055907Y-115570000D01*
X114168946Y-116138285D01*
X114490853Y-116620054D01*
X114831553Y-116847702D01*
X114688642Y-116914817D01*
X114298355Y-117343076D01*
X114128524Y-117753110D01*
X114249845Y-117983000D01*
X115443000Y-117983000D01*
X115443000Y-117963000D01*
X115697000Y-117963000D01*
X115697000Y-117983000D01*
X116890155Y-117983000D01*
X117011476Y-117753110D01*
X116841645Y-117343076D01*
X116451358Y-116914817D01*
X116308447Y-116847702D01*
X116649147Y-116620054D01*
X116971054Y-116138285D01*
X117084093Y-115570000D01*
X116971054Y-115001715D01*
X116649147Y-114519946D01*
X116319974Y-114300000D01*
X116649147Y-114080054D01*
X116971054Y-113598285D01*
X117084093Y-113030000D01*
X116971054Y-112461715D01*
X116649147Y-111979946D01*
X116319974Y-111760000D01*
X116649147Y-111540054D01*
X116971054Y-111058285D01*
X117084093Y-110490000D01*
X116971054Y-109921715D01*
X116649147Y-109439946D01*
X116605223Y-109410597D01*
X116779698Y-109338327D01*
X116958327Y-109159699D01*
X117055000Y-108926310D01*
X117055000Y-108235750D01*
X116896250Y-108077000D01*
X115697000Y-108077000D01*
X115697000Y-108097000D01*
X115443000Y-108097000D01*
X115443000Y-108077000D01*
X114243750Y-108077000D01*
X114085000Y-108235750D01*
X114085000Y-108926310D01*
X114181673Y-109159699D01*
X114360302Y-109338327D01*
X114534777Y-109410597D01*
X114490853Y-109439946D01*
X114168946Y-109921715D01*
X114055907Y-110490000D01*
X112470000Y-110490000D01*
X112470000Y-105825312D01*
X112527954Y-105912046D01*
X113340976Y-106455289D01*
X114279918Y-106642056D01*
X114181673Y-106740301D01*
X114085000Y-106973690D01*
X114085000Y-107664250D01*
X114243750Y-107823000D01*
X115443000Y-107823000D01*
X115443000Y-106623750D01*
X115697000Y-106623750D01*
X115697000Y-107823000D01*
X116896250Y-107823000D01*
X117055000Y-107664250D01*
X117055000Y-106973690D01*
X116958327Y-106740301D01*
X116779698Y-106561673D01*
X116546309Y-106465000D01*
X115855750Y-106465000D01*
X115697000Y-106623750D01*
X115443000Y-106623750D01*
X115284250Y-106465000D01*
X115210204Y-106465000D01*
X115259024Y-106455289D01*
X116072046Y-105912046D01*
X116615289Y-105099024D01*
X116806051Y-104140000D01*
X116615289Y-103180976D01*
X116072046Y-102367954D01*
X115985312Y-102310000D01*
X148174688Y-102310000D01*
X148087954Y-102367954D01*
X148087954Y-102367954D01*
G37*
X148087954Y-102367954D02*
X147544711Y-103180976D01*
X147353949Y-104140000D01*
X147544711Y-105099024D01*
X148087954Y-105912046D01*
X148900976Y-106455289D01*
X149860000Y-106646051D01*
X150819024Y-106455289D01*
X151632046Y-105912046D01*
X151690000Y-105825312D01*
X151690000Y-121151198D01*
X150524401Y-119985599D01*
X150277839Y-119820852D01*
X149987000Y-119763000D01*
X147066000Y-119763000D01*
X146775161Y-119820852D01*
X146528599Y-119985599D01*
X145639599Y-120874599D01*
X145474852Y-121121161D01*
X145417000Y-121412000D01*
X145417000Y-126746000D01*
X145474852Y-127036839D01*
X145639599Y-127283401D01*
X145671000Y-127314802D01*
X145671000Y-129921000D01*
X145728852Y-130211839D01*
X145893599Y-130458401D01*
X146782599Y-131347401D01*
X147029161Y-131512148D01*
X147316593Y-131569322D01*
X147510853Y-131860054D01*
X147840026Y-132080000D01*
X147510853Y-132299946D01*
X147317046Y-132590000D01*
X133604000Y-132590000D01*
X133361414Y-132638254D01*
X133313160Y-132647852D01*
X133066599Y-132812599D01*
X130749198Y-135130000D01*
X121666000Y-135130000D01*
X121375161Y-135187852D01*
X121128599Y-135352599D01*
X117843320Y-138637878D01*
X117797833Y-138637838D01*
X117454057Y-138779883D01*
X117190808Y-139042673D01*
X117048162Y-139386201D01*
X117047838Y-139758167D01*
X117189883Y-140101943D01*
X117452673Y-140365192D01*
X117796201Y-140507838D01*
X118168167Y-140508162D01*
X118511943Y-140366117D01*
X118775192Y-140103327D01*
X118917838Y-139759799D01*
X118917879Y-139712923D01*
X121980802Y-136650000D01*
X131064000Y-136650000D01*
X131354839Y-136592148D01*
X131601401Y-136427401D01*
X131953635Y-136075167D01*
X134700838Y-136075167D01*
X134842883Y-136418943D01*
X135105673Y-136682192D01*
X135449201Y-136824838D01*
X135821167Y-136825162D01*
X135937728Y-136777000D01*
X137613537Y-136777000D01*
X137645673Y-136809192D01*
X137989201Y-136951838D01*
X138361167Y-136952162D01*
X138704943Y-136810117D01*
X138968192Y-136547327D01*
X139110838Y-136203799D01*
X139111162Y-135831833D01*
X138969117Y-135488057D01*
X138706327Y-135224808D01*
X138362799Y-135082162D01*
X137990833Y-135081838D01*
X137647057Y-135223883D01*
X137613882Y-135257000D01*
X136325241Y-135257000D01*
X136166327Y-135097808D01*
X135822799Y-134955162D01*
X135450833Y-134954838D01*
X135107057Y-135096883D01*
X134843808Y-135359673D01*
X134701162Y-135703201D01*
X134700838Y-136075167D01*
X131953635Y-136075167D01*
X133918802Y-134110000D01*
X140141880Y-134110000D01*
X140095069Y-134178510D01*
X140044060Y-134430400D01*
X140044060Y-136130400D01*
X140088338Y-136365717D01*
X140227410Y-136581841D01*
X140439610Y-136726831D01*
X140691500Y-136777840D01*
X142391500Y-136777840D01*
X142626817Y-136733562D01*
X142842941Y-136594490D01*
X142987931Y-136382290D01*
X143009801Y-136274293D01*
X143314576Y-136552045D01*
X143724610Y-136721876D01*
X143954500Y-136600555D01*
X143954500Y-135407400D01*
X144208500Y-135407400D01*
X144208500Y-136600555D01*
X144438390Y-136721876D01*
X144848424Y-136552045D01*
X145276683Y-136161758D01*
X145522986Y-135637292D01*
X145402319Y-135407400D01*
X144208500Y-135407400D01*
X143954500Y-135407400D01*
X143934500Y-135407400D01*
X143934500Y-135153400D01*
X143954500Y-135153400D01*
X143954500Y-135133400D01*
X144208500Y-135133400D01*
X144208500Y-135153400D01*
X145402319Y-135153400D01*
X145522986Y-134923508D01*
X145276683Y-134399042D01*
X144959519Y-134110000D01*
X147317046Y-134110000D01*
X147510853Y-134400054D01*
X147992622Y-134721961D01*
X148560907Y-134835000D01*
X148619093Y-134835000D01*
X149187378Y-134721961D01*
X149481000Y-134525770D01*
X149481000Y-134813198D01*
X149085320Y-135208878D01*
X149039833Y-135208838D01*
X148696057Y-135350883D01*
X148432808Y-135613673D01*
X148290162Y-135957201D01*
X148289838Y-136329167D01*
X148431883Y-136672943D01*
X148694673Y-136936192D01*
X149038201Y-137078838D01*
X149410167Y-137079162D01*
X149753943Y-136937117D01*
X150017192Y-136674327D01*
X150159838Y-136330799D01*
X150159879Y-136283923D01*
X150778401Y-135665401D01*
X150943148Y-135418839D01*
X151001000Y-135128000D01*
X151001000Y-134299802D01*
X151690000Y-133610802D01*
X151690000Y-145634688D01*
X151632046Y-145547954D01*
X150819024Y-145004711D01*
X149860000Y-144813949D01*
X148900976Y-145004711D01*
X148087954Y-145547954D01*
X147544711Y-146360976D01*
X147353949Y-147320000D01*
X147544711Y-148279024D01*
X148087954Y-149092046D01*
X148174688Y-149150000D01*
X115985312Y-149150000D01*
X116072046Y-149092046D01*
X116615289Y-148279024D01*
X116806051Y-147320000D01*
X116615289Y-146360976D01*
X116072046Y-145547954D01*
X115259024Y-145004711D01*
X114300000Y-144813949D01*
X113340976Y-145004711D01*
X112527954Y-145547954D01*
X112470000Y-145634688D01*
X112470000Y-143426479D01*
X132777004Y-143426479D01*
X132957030Y-143862174D01*
X133290085Y-144195811D01*
X133725465Y-144376596D01*
X134196887Y-144377008D01*
X134632582Y-144196982D01*
X134966219Y-143863927D01*
X135147004Y-143428547D01*
X135147416Y-142957125D01*
X134967390Y-142521430D01*
X134634335Y-142187793D01*
X134198955Y-142007008D01*
X133727533Y-142006596D01*
X133291838Y-142186622D01*
X132958201Y-142519677D01*
X132777416Y-142955057D01*
X132777004Y-143426479D01*
X112470000Y-143426479D01*
X112470000Y-140705806D01*
X130260028Y-140705806D01*
X130414227Y-141078996D01*
X130699502Y-141364769D01*
X131072422Y-141519619D01*
X131476214Y-141519972D01*
X131849404Y-141365773D01*
X132135177Y-141080498D01*
X132290027Y-140707578D01*
X132290380Y-140303786D01*
X132136181Y-139930596D01*
X131850906Y-139644823D01*
X131477986Y-139489973D01*
X131074194Y-139489620D01*
X130701004Y-139643819D01*
X130415231Y-139929094D01*
X130260381Y-140302014D01*
X130260028Y-140705806D01*
X112470000Y-140705806D01*
X112470000Y-136246890D01*
X114128524Y-136246890D01*
X114298355Y-136656924D01*
X114688642Y-137085183D01*
X115213108Y-137331486D01*
X115443000Y-137210819D01*
X115443000Y-136017000D01*
X115697000Y-136017000D01*
X115697000Y-137210819D01*
X115926892Y-137331486D01*
X116451358Y-137085183D01*
X116841645Y-136656924D01*
X117011476Y-136246890D01*
X116890155Y-136017000D01*
X115697000Y-136017000D01*
X115443000Y-136017000D01*
X114249845Y-136017000D01*
X114128524Y-136246890D01*
X112470000Y-136246890D01*
X112470000Y-123190000D01*
X114055907Y-123190000D01*
X114168946Y-123758285D01*
X114490853Y-124240054D01*
X114820026Y-124460000D01*
X114490853Y-124679946D01*
X114168946Y-125161715D01*
X114055907Y-125730000D01*
X114168946Y-126298285D01*
X114490853Y-126780054D01*
X114820026Y-127000000D01*
X114490853Y-127219946D01*
X114168946Y-127701715D01*
X114055907Y-128270000D01*
X114168946Y-128838285D01*
X114490853Y-129320054D01*
X114820026Y-129540000D01*
X114490853Y-129759946D01*
X114168946Y-130241715D01*
X114055907Y-130810000D01*
X114168946Y-131378285D01*
X114490853Y-131860054D01*
X114820026Y-132080000D01*
X114490853Y-132299946D01*
X114168946Y-132781715D01*
X114055907Y-133350000D01*
X114168946Y-133918285D01*
X114490853Y-134400054D01*
X114831553Y-134627702D01*
X114688642Y-134694817D01*
X114298355Y-135123076D01*
X114128524Y-135533110D01*
X114249845Y-135763000D01*
X115443000Y-135763000D01*
X115443000Y-135743000D01*
X115697000Y-135743000D01*
X115697000Y-135763000D01*
X116890155Y-135763000D01*
X117011476Y-135533110D01*
X116841645Y-135123076D01*
X116451358Y-134694817D01*
X116308447Y-134627702D01*
X116649147Y-134400054D01*
X116971054Y-133918285D01*
X117084093Y-133350000D01*
X116971054Y-132781715D01*
X116649147Y-132299946D01*
X116319974Y-132080000D01*
X116649147Y-131860054D01*
X116971054Y-131378285D01*
X117084093Y-130810000D01*
X116971054Y-130241715D01*
X116649147Y-129759946D01*
X116319974Y-129540000D01*
X116649147Y-129320054D01*
X116971054Y-128838285D01*
X117084093Y-128270000D01*
X116971054Y-127701715D01*
X116649147Y-127219946D01*
X116319974Y-127000000D01*
X116649147Y-126780054D01*
X116971054Y-126298285D01*
X117021999Y-126042167D01*
X135335838Y-126042167D01*
X135477883Y-126385943D01*
X135740673Y-126649192D01*
X136084201Y-126791838D01*
X136456167Y-126792162D01*
X136799943Y-126650117D01*
X137063192Y-126387327D01*
X137178764Y-126109000D01*
X137246403Y-126109000D01*
X137255883Y-126131943D01*
X137518673Y-126395192D01*
X137862201Y-126537838D01*
X138234167Y-126538162D01*
X138577943Y-126396117D01*
X138841192Y-126133327D01*
X138983838Y-125789799D01*
X138984162Y-125417833D01*
X138842117Y-125074057D01*
X138579327Y-124810808D01*
X138235799Y-124668162D01*
X138117578Y-124668059D01*
X138085839Y-124646852D01*
X137795000Y-124589000D01*
X136779000Y-124589000D01*
X136488161Y-124646852D01*
X136427417Y-124687440D01*
X136241599Y-124811599D01*
X136131320Y-124921878D01*
X136085833Y-124921838D01*
X135742057Y-125063883D01*
X135478808Y-125326673D01*
X135336162Y-125670201D01*
X135335838Y-126042167D01*
X117021999Y-126042167D01*
X117084093Y-125730000D01*
X116971054Y-125161715D01*
X116649147Y-124679946D01*
X116319974Y-124460000D01*
X116649147Y-124240054D01*
X116971054Y-123758285D01*
X117084093Y-123190000D01*
X116971054Y-122621715D01*
X116649147Y-122139946D01*
X116308447Y-121912298D01*
X116451358Y-121845183D01*
X116841645Y-121416924D01*
X117011476Y-121006890D01*
X116890155Y-120777000D01*
X115697000Y-120777000D01*
X115697000Y-120797000D01*
X115443000Y-120797000D01*
X115443000Y-120777000D01*
X114249845Y-120777000D01*
X114128524Y-121006890D01*
X114298355Y-121416924D01*
X114688642Y-121845183D01*
X114831553Y-121912298D01*
X114490853Y-122139946D01*
X114168946Y-122621715D01*
X114055907Y-123190000D01*
X112470000Y-123190000D01*
X112470000Y-118466890D01*
X114128524Y-118466890D01*
X114298355Y-118876924D01*
X114688642Y-119305183D01*
X114847954Y-119380000D01*
X114688642Y-119454817D01*
X114298355Y-119883076D01*
X114128524Y-120293110D01*
X114249845Y-120523000D01*
X115443000Y-120523000D01*
X115443000Y-118237000D01*
X115697000Y-118237000D01*
X115697000Y-120523000D01*
X116890155Y-120523000D01*
X117011476Y-120293110D01*
X116841645Y-119883076D01*
X116451358Y-119454817D01*
X116292046Y-119380000D01*
X116451358Y-119305183D01*
X116841645Y-118876924D01*
X117011476Y-118466890D01*
X116890155Y-118237000D01*
X115697000Y-118237000D01*
X115443000Y-118237000D01*
X114249845Y-118237000D01*
X114128524Y-118466890D01*
X112470000Y-118466890D01*
X112470000Y-110490000D01*
X114055907Y-110490000D01*
X114168946Y-111058285D01*
X114490853Y-111540054D01*
X114820026Y-111760000D01*
X114490853Y-111979946D01*
X114168946Y-112461715D01*
X114055907Y-113030000D01*
X114168946Y-113598285D01*
X114490853Y-114080054D01*
X114820026Y-114300000D01*
X114490853Y-114519946D01*
X114168946Y-115001715D01*
X114055907Y-115570000D01*
X114168946Y-116138285D01*
X114490853Y-116620054D01*
X114831553Y-116847702D01*
X114688642Y-116914817D01*
X114298355Y-117343076D01*
X114128524Y-117753110D01*
X114249845Y-117983000D01*
X115443000Y-117983000D01*
X115443000Y-117963000D01*
X115697000Y-117963000D01*
X115697000Y-117983000D01*
X116890155Y-117983000D01*
X117011476Y-117753110D01*
X116841645Y-117343076D01*
X116451358Y-116914817D01*
X116308447Y-116847702D01*
X116649147Y-116620054D01*
X116971054Y-116138285D01*
X117084093Y-115570000D01*
X116971054Y-115001715D01*
X116649147Y-114519946D01*
X116319974Y-114300000D01*
X116649147Y-114080054D01*
X116971054Y-113598285D01*
X117084093Y-113030000D01*
X116971054Y-112461715D01*
X116649147Y-111979946D01*
X116319974Y-111760000D01*
X116649147Y-111540054D01*
X116971054Y-111058285D01*
X117084093Y-110490000D01*
X116971054Y-109921715D01*
X116649147Y-109439946D01*
X116605223Y-109410597D01*
X116779698Y-109338327D01*
X116958327Y-109159699D01*
X117055000Y-108926310D01*
X117055000Y-108235750D01*
X116896250Y-108077000D01*
X115697000Y-108077000D01*
X115697000Y-108097000D01*
X115443000Y-108097000D01*
X115443000Y-108077000D01*
X114243750Y-108077000D01*
X114085000Y-108235750D01*
X114085000Y-108926310D01*
X114181673Y-109159699D01*
X114360302Y-109338327D01*
X114534777Y-109410597D01*
X114490853Y-109439946D01*
X114168946Y-109921715D01*
X114055907Y-110490000D01*
X112470000Y-110490000D01*
X112470000Y-105825312D01*
X112527954Y-105912046D01*
X113340976Y-106455289D01*
X114279918Y-106642056D01*
X114181673Y-106740301D01*
X114085000Y-106973690D01*
X114085000Y-107664250D01*
X114243750Y-107823000D01*
X115443000Y-107823000D01*
X115443000Y-106623750D01*
X115697000Y-106623750D01*
X115697000Y-107823000D01*
X116896250Y-107823000D01*
X117055000Y-107664250D01*
X117055000Y-106973690D01*
X116958327Y-106740301D01*
X116779698Y-106561673D01*
X116546309Y-106465000D01*
X115855750Y-106465000D01*
X115697000Y-106623750D01*
X115443000Y-106623750D01*
X115284250Y-106465000D01*
X115210204Y-106465000D01*
X115259024Y-106455289D01*
X116072046Y-105912046D01*
X116615289Y-105099024D01*
X116806051Y-104140000D01*
X116615289Y-103180976D01*
X116072046Y-102367954D01*
X115985312Y-102310000D01*
X148174688Y-102310000D01*
X148087954Y-102367954D01*
M02*
