G04 #@! TF.FileFunction,Copper,L1,Top,Signal*
%FSLAX46Y46*%
G04 Gerber Fmt 4.6, Leading zero omitted, Abs format (unit mm)*
G04 Created by KiCad (PCBNEW 4.0.7) date 04/18/19 12:47:30*
%MOMM*%
%LPD*%
G01*
G04 APERTURE LIST*
%ADD10C,0.100000*%
%ADD11R,2.000000X1.700000*%
%ADD12R,1.700000X1.700000*%
%ADD13O,1.700000X1.700000*%
%ADD14R,0.350000X2.000000*%
%ADD15C,0.600000*%
%ADD16C,0.250000*%
%ADD17C,0.254000*%
G04 APERTURE END LIST*
D10*
D11*
X144050000Y-140970000D03*
X148050000Y-140970000D03*
X116110000Y-143510000D03*
X120110000Y-143510000D03*
X144050000Y-143510000D03*
X148050000Y-143510000D03*
X116110000Y-139700000D03*
X120110000Y-139700000D03*
X148050000Y-138430000D03*
X144050000Y-138430000D03*
D12*
X115570000Y-107950000D03*
D13*
X115570000Y-110490000D03*
X115570000Y-113030000D03*
X115570000Y-115570000D03*
X115570000Y-118110000D03*
X115570000Y-120650000D03*
X115570000Y-123190000D03*
X115570000Y-125730000D03*
X115570000Y-128270000D03*
X115570000Y-130810000D03*
X115570000Y-133350000D03*
X115570000Y-135890000D03*
D12*
X148590000Y-123190000D03*
D13*
X148590000Y-125730000D03*
X148590000Y-128270000D03*
X148590000Y-130810000D03*
X148590000Y-133350000D03*
D10*
G36*
X135800688Y-141424035D02*
X135093581Y-140716928D01*
X136507794Y-139302715D01*
X137214901Y-140009822D01*
X135800688Y-141424035D01*
X135800688Y-141424035D01*
G37*
G36*
X134793060Y-140416408D02*
X134085953Y-139709301D01*
X135500166Y-138295088D01*
X136207273Y-139002195D01*
X134793060Y-140416408D01*
X134793060Y-140416408D01*
G37*
G36*
X133785433Y-139408780D02*
X133078326Y-138701673D01*
X134492539Y-137287460D01*
X135199646Y-137994567D01*
X133785433Y-139408780D01*
X133785433Y-139408780D01*
G37*
G36*
X128764975Y-144429239D02*
X128057868Y-143722132D01*
X129472081Y-142307919D01*
X130179188Y-143015026D01*
X128764975Y-144429239D01*
X128764975Y-144429239D01*
G37*
G36*
X130780229Y-146444493D02*
X130073122Y-145737386D01*
X131487335Y-144323173D01*
X132194442Y-145030280D01*
X130780229Y-146444493D01*
X130780229Y-146444493D01*
G37*
G36*
X129772602Y-145436866D02*
X129065495Y-144729759D01*
X130479708Y-143315546D01*
X131186815Y-144022653D01*
X129772602Y-145436866D01*
X129772602Y-145436866D01*
G37*
G36*
X135553200Y-146197006D02*
X134138986Y-144782792D01*
X135553200Y-143368578D01*
X136967414Y-144782792D01*
X135553200Y-146197006D01*
X135553200Y-146197006D01*
G37*
G36*
X129754924Y-140257309D02*
X128340710Y-138843095D01*
X129754924Y-137428881D01*
X131169138Y-138843095D01*
X129754924Y-140257309D01*
X129754924Y-140257309D01*
G37*
D14*
X139080000Y-120650000D03*
X138380000Y-120650000D03*
X137680000Y-120650000D03*
X136980000Y-120650000D03*
X136280000Y-120650000D03*
X135580000Y-120650000D03*
X134880000Y-120650000D03*
X134180000Y-120650000D03*
X133480000Y-120650000D03*
X132780000Y-120650000D03*
X132080000Y-120650000D03*
X131380000Y-120650000D03*
D12*
X141541500Y-135280400D03*
D13*
X144081500Y-135280400D03*
D15*
X150495000Y-129286000D03*
X136271000Y-125857000D03*
X138049000Y-125603000D03*
X117983000Y-139573000D03*
X149225000Y-136144000D03*
X138176000Y-136017000D03*
X135636000Y-135890000D03*
X131318000Y-118364000D03*
X136271000Y-118491000D03*
D16*
X129118528Y-143368579D02*
X129118528Y-143804472D01*
X129118528Y-143804472D02*
X127635000Y-145288000D01*
X127635000Y-145288000D02*
X127635000Y-145669000D01*
X127635000Y-145669000D02*
X130429000Y-148463000D01*
X130429000Y-148463000D02*
X144272000Y-148463000D01*
X144272000Y-148463000D02*
X146050000Y-146685000D01*
X146050000Y-146685000D02*
X146050000Y-141478000D01*
X146050000Y-141478000D02*
X145542000Y-140970000D01*
X145542000Y-140970000D02*
X144050000Y-140970000D01*
X148050000Y-140970000D02*
X150241000Y-140970000D01*
X150495000Y-140716000D02*
X150495000Y-129286000D01*
X150241000Y-140970000D02*
X150495000Y-140716000D01*
X130126155Y-144376206D02*
X130126155Y-144066845D01*
X130126155Y-144066845D02*
X131064000Y-143129000D01*
X131064000Y-143129000D02*
X131064000Y-142748000D01*
X131064000Y-142748000D02*
X129667000Y-141351000D01*
X129667000Y-141351000D02*
X125730000Y-141351000D01*
X125730000Y-141351000D02*
X121539000Y-145542000D01*
X121539000Y-145542000D02*
X116332000Y-145542000D01*
X116332000Y-145542000D02*
X116110000Y-145320000D01*
X116110000Y-145320000D02*
X116110000Y-143510000D01*
X120110000Y-143510000D02*
X120110000Y-142843000D01*
X120110000Y-142843000D02*
X118999000Y-141732000D01*
X118999000Y-141732000D02*
X114808000Y-141732000D01*
X114808000Y-141732000D02*
X113919000Y-140843000D01*
X113919000Y-140843000D02*
X113919000Y-138430000D01*
X113919000Y-138430000D02*
X114427000Y-137922000D01*
X114427000Y-137922000D02*
X125730000Y-137922000D01*
X125730000Y-137922000D02*
X136271000Y-127381000D01*
X136271000Y-127381000D02*
X136271000Y-125857000D01*
X138049000Y-125603000D02*
X138176000Y-125730000D01*
X138176000Y-125730000D02*
X148590000Y-125730000D01*
X131133782Y-145383833D02*
X131133782Y-145611782D01*
X131133782Y-145611782D02*
X132588000Y-147066000D01*
X132588000Y-147066000D02*
X141986000Y-147066000D01*
X141986000Y-147066000D02*
X144050000Y-145002000D01*
X144050000Y-145002000D02*
X144050000Y-143510000D01*
X148050000Y-143510000D02*
X151130000Y-143510000D01*
X150622000Y-128270000D02*
X148590000Y-128270000D01*
X151638000Y-129286000D02*
X150622000Y-128270000D01*
X151638000Y-143002000D02*
X151638000Y-129286000D01*
X151130000Y-143510000D02*
X151638000Y-143002000D01*
X116110000Y-139700000D02*
X117856000Y-139700000D01*
X117856000Y-139700000D02*
X117983000Y-139573000D01*
X120110000Y-139700000D02*
X124333000Y-139700000D01*
X135128000Y-141732000D02*
X136154241Y-140705759D01*
X134620000Y-141732000D02*
X135128000Y-141732000D01*
X132080000Y-139192000D02*
X134620000Y-141732000D01*
X132080000Y-138303000D02*
X132080000Y-139192000D01*
X130302000Y-136525000D02*
X132080000Y-138303000D01*
X129159000Y-136525000D02*
X130302000Y-136525000D01*
X126619000Y-139065000D02*
X129159000Y-136525000D01*
X124968000Y-139065000D02*
X126619000Y-139065000D01*
X124333000Y-139700000D02*
X124968000Y-139065000D01*
X136154241Y-140705759D02*
X136154241Y-140363375D01*
X148050000Y-138430000D02*
X148050000Y-137319000D01*
X148050000Y-137319000D02*
X149225000Y-136144000D01*
X134138986Y-138348120D02*
X134138986Y-137387014D01*
X140716000Y-138557000D02*
X143923000Y-138557000D01*
X138176000Y-136017000D02*
X140716000Y-138557000D01*
X134138986Y-137387014D02*
X135636000Y-135890000D01*
X143923000Y-138557000D02*
X144050000Y-138430000D01*
X136280000Y-120650000D02*
X136280000Y-118500000D01*
X131380000Y-118426000D02*
X131380000Y-120650000D01*
X131318000Y-118364000D02*
X131380000Y-118426000D01*
X136280000Y-118500000D02*
X136271000Y-118491000D01*
X115570000Y-120650000D02*
X114808000Y-120650000D01*
X114808000Y-120650000D02*
X112903000Y-122555000D01*
X114300000Y-135890000D02*
X115570000Y-135890000D01*
X112903000Y-134493000D02*
X114300000Y-135890000D01*
X112903000Y-122555000D02*
X112903000Y-134493000D01*
X115570000Y-120650000D02*
X115570000Y-118110000D01*
X115570000Y-118110000D02*
X114046000Y-118110000D01*
X114300000Y-107950000D02*
X115570000Y-107950000D01*
X113284000Y-108966000D02*
X114300000Y-107950000D01*
X113284000Y-117348000D02*
X113284000Y-108966000D01*
X114046000Y-118110000D02*
X113284000Y-117348000D01*
X135580000Y-120650000D02*
X135580000Y-116911000D01*
X117221000Y-117983000D02*
X115697000Y-117983000D01*
X118872000Y-116332000D02*
X117221000Y-117983000D01*
X135001000Y-116332000D02*
X118872000Y-116332000D01*
X135580000Y-116911000D02*
X135001000Y-116332000D01*
X115697000Y-117983000D02*
X115570000Y-118110000D01*
X136280000Y-120650000D02*
X135580000Y-120650000D01*
X139080000Y-120650000D02*
X139080000Y-109743000D01*
X139080000Y-109743000D02*
X137287000Y-107950000D01*
X137287000Y-107950000D02*
X115570000Y-107950000D01*
X138380000Y-120650000D02*
X138380000Y-111202000D01*
X137668000Y-110490000D02*
X115570000Y-110490000D01*
X138380000Y-111202000D02*
X137668000Y-110490000D01*
X137680000Y-120650000D02*
X137680000Y-114312000D01*
X136398000Y-113030000D02*
X115570000Y-113030000D01*
X137680000Y-114312000D02*
X136398000Y-113030000D01*
X137033000Y-134518400D02*
X140779500Y-134518400D01*
X140779500Y-134518400D02*
X141541500Y-135280400D01*
X135146613Y-139355748D02*
X135218252Y-139355748D01*
X135218252Y-139355748D02*
X137033000Y-137541000D01*
X137033000Y-137541000D02*
X137033000Y-134518400D01*
X137033000Y-134518400D02*
X137033000Y-120703000D01*
X137033000Y-120703000D02*
X136980000Y-120650000D01*
X136980000Y-120650000D02*
X136980000Y-116914000D01*
X135636000Y-115570000D02*
X115570000Y-115570000D01*
X136980000Y-116914000D02*
X135636000Y-115570000D01*
X134880000Y-120650000D02*
X134880000Y-117481000D01*
X117475000Y-123190000D02*
X115570000Y-123190000D01*
X118364000Y-122301000D02*
X117475000Y-123190000D01*
X118364000Y-118999000D02*
X118364000Y-122301000D01*
X120269000Y-117094000D02*
X118364000Y-118999000D01*
X134493000Y-117094000D02*
X120269000Y-117094000D01*
X134880000Y-117481000D02*
X134493000Y-117094000D01*
X134180000Y-120650000D02*
X134180000Y-118305000D01*
X116586000Y-125730000D02*
X115570000Y-125730000D01*
X117983000Y-124333000D02*
X116586000Y-125730000D01*
X117983000Y-123952000D02*
X117983000Y-124333000D01*
X119126000Y-122809000D02*
X117983000Y-123952000D01*
X119126000Y-119634000D02*
X119126000Y-122809000D01*
X121031000Y-117729000D02*
X119126000Y-119634000D01*
X133604000Y-117729000D02*
X121031000Y-117729000D01*
X134180000Y-118305000D02*
X133604000Y-117729000D01*
X133480000Y-120650000D02*
X133480000Y-127632000D01*
X114300000Y-128270000D02*
X115570000Y-128270000D01*
X113538000Y-129032000D02*
X114300000Y-128270000D01*
X113538000Y-134239000D02*
X113538000Y-129032000D01*
X113919000Y-134620000D02*
X113538000Y-134239000D01*
X116586000Y-134620000D02*
X113919000Y-134620000D01*
X116713000Y-134747000D02*
X116586000Y-134620000D01*
X126365000Y-134747000D02*
X116713000Y-134747000D01*
X133480000Y-127632000D02*
X126365000Y-134747000D01*
X132780000Y-120650000D02*
X132780000Y-127443000D01*
X129159000Y-131064000D02*
X115824000Y-131064000D01*
X132780000Y-127443000D02*
X129159000Y-131064000D01*
X115824000Y-131064000D02*
X115570000Y-130810000D01*
X132080000Y-120650000D02*
X132080000Y-126746000D01*
X114300000Y-131699000D02*
X115570000Y-132969000D01*
X114300000Y-129921000D02*
X114300000Y-131699000D01*
X114681000Y-129540000D02*
X114300000Y-129921000D01*
X129286000Y-129540000D02*
X114681000Y-129540000D01*
X132080000Y-126746000D02*
X129286000Y-129540000D01*
X115570000Y-132969000D02*
X115570000Y-133350000D01*
D17*
G36*
X148087954Y-102367954D02*
X147544711Y-103180976D01*
X147353949Y-104140000D01*
X147544711Y-105099024D01*
X148087954Y-105912046D01*
X148900976Y-106455289D01*
X149860000Y-106646051D01*
X150819024Y-106455289D01*
X151632046Y-105912046D01*
X151690000Y-105825312D01*
X151690000Y-128263198D01*
X151159401Y-127732599D01*
X150912839Y-127567852D01*
X150622000Y-127510000D01*
X149862954Y-127510000D01*
X149669147Y-127219946D01*
X149339974Y-127000000D01*
X149669147Y-126780054D01*
X149991054Y-126298285D01*
X150104093Y-125730000D01*
X149991054Y-125161715D01*
X149669147Y-124679946D01*
X149627548Y-124652150D01*
X149675317Y-124643162D01*
X149891441Y-124504090D01*
X150036431Y-124291890D01*
X150087440Y-124040000D01*
X150087440Y-122340000D01*
X150043162Y-122104683D01*
X149904090Y-121888559D01*
X149691890Y-121743569D01*
X149440000Y-121692560D01*
X147740000Y-121692560D01*
X147504683Y-121736838D01*
X147288559Y-121875910D01*
X147143569Y-122088110D01*
X147092560Y-122340000D01*
X147092560Y-124040000D01*
X147136838Y-124275317D01*
X147275910Y-124491441D01*
X147488110Y-124636431D01*
X147555541Y-124650086D01*
X147510853Y-124679946D01*
X147317046Y-124970000D01*
X138738241Y-124970000D01*
X138579327Y-124810808D01*
X138235799Y-124668162D01*
X137863833Y-124667838D01*
X137793000Y-124697106D01*
X137793000Y-122297440D01*
X137855000Y-122297440D01*
X138036424Y-122263303D01*
X138205000Y-122297440D01*
X138555000Y-122297440D01*
X138729469Y-122264611D01*
X138778691Y-122285000D01*
X138833750Y-122285000D01*
X138992500Y-122126250D01*
X138992500Y-122123061D01*
X139006441Y-122114090D01*
X139151431Y-121901890D01*
X139167500Y-121822539D01*
X139167500Y-122126250D01*
X139326250Y-122285000D01*
X139381309Y-122285000D01*
X139614698Y-122188327D01*
X139793327Y-122009699D01*
X139890000Y-121776310D01*
X139890000Y-120935750D01*
X139731250Y-120777000D01*
X139202440Y-120777000D01*
X139202440Y-120523000D01*
X139731250Y-120523000D01*
X139890000Y-120364250D01*
X139890000Y-119523690D01*
X139793327Y-119290301D01*
X139614698Y-119111673D01*
X139381309Y-119015000D01*
X139326250Y-119015000D01*
X139207002Y-119134248D01*
X139207002Y-119015000D01*
X139140000Y-119015000D01*
X139140000Y-111202000D01*
X139082148Y-110911161D01*
X138917401Y-110664599D01*
X138205401Y-109952599D01*
X137958839Y-109787852D01*
X137668000Y-109730000D01*
X116842954Y-109730000D01*
X116649147Y-109439946D01*
X116605223Y-109410597D01*
X116779698Y-109338327D01*
X116958327Y-109159699D01*
X117055000Y-108926310D01*
X117055000Y-108235750D01*
X116896250Y-108077000D01*
X115697000Y-108077000D01*
X115697000Y-108097000D01*
X115443000Y-108097000D01*
X115443000Y-108077000D01*
X114243750Y-108077000D01*
X114085000Y-108235750D01*
X114085000Y-108926310D01*
X114181673Y-109159699D01*
X114360302Y-109338327D01*
X114534777Y-109410597D01*
X114490853Y-109439946D01*
X114168946Y-109921715D01*
X114055907Y-110490000D01*
X114168946Y-111058285D01*
X114490853Y-111540054D01*
X114820026Y-111760000D01*
X114490853Y-111979946D01*
X114168946Y-112461715D01*
X114055907Y-113030000D01*
X114168946Y-113598285D01*
X114490853Y-114080054D01*
X114820026Y-114300000D01*
X114490853Y-114519946D01*
X114168946Y-115001715D01*
X114055907Y-115570000D01*
X114168946Y-116138285D01*
X114490853Y-116620054D01*
X114831553Y-116847702D01*
X114688642Y-116914817D01*
X114298355Y-117343076D01*
X114128524Y-117753110D01*
X114249845Y-117983000D01*
X115443000Y-117983000D01*
X115443000Y-117963000D01*
X115697000Y-117963000D01*
X115697000Y-117983000D01*
X116890155Y-117983000D01*
X117011476Y-117753110D01*
X116841645Y-117343076D01*
X116451358Y-116914817D01*
X116308447Y-116847702D01*
X116649147Y-116620054D01*
X116842954Y-116330000D01*
X135321198Y-116330000D01*
X136220000Y-117228802D01*
X136220000Y-119015000D01*
X136152998Y-119015000D01*
X136152998Y-119134248D01*
X136033750Y-119015000D01*
X135978691Y-119015000D01*
X135930000Y-119035168D01*
X135881309Y-119015000D01*
X135826250Y-119015000D01*
X135707002Y-119134248D01*
X135707002Y-119015000D01*
X135640000Y-119015000D01*
X135640000Y-117481000D01*
X135582148Y-117190161D01*
X135417401Y-116943599D01*
X135030401Y-116556599D01*
X134783839Y-116391852D01*
X134493000Y-116334000D01*
X120269000Y-116334000D01*
X119978161Y-116391852D01*
X119731599Y-116556599D01*
X117826599Y-118461599D01*
X117661852Y-118708161D01*
X117604000Y-118999000D01*
X117604000Y-121986198D01*
X117160198Y-122430000D01*
X116842954Y-122430000D01*
X116649147Y-122139946D01*
X116308447Y-121912298D01*
X116451358Y-121845183D01*
X116841645Y-121416924D01*
X117011476Y-121006890D01*
X116890155Y-120777000D01*
X115697000Y-120777000D01*
X115697000Y-120797000D01*
X115443000Y-120797000D01*
X115443000Y-120777000D01*
X114249845Y-120777000D01*
X114128524Y-121006890D01*
X114298355Y-121416924D01*
X114688642Y-121845183D01*
X114831553Y-121912298D01*
X114490853Y-122139946D01*
X114168946Y-122621715D01*
X114055907Y-123190000D01*
X114168946Y-123758285D01*
X114490853Y-124240054D01*
X114820026Y-124460000D01*
X114490853Y-124679946D01*
X114168946Y-125161715D01*
X114055907Y-125730000D01*
X114168946Y-126298285D01*
X114490853Y-126780054D01*
X114820026Y-127000000D01*
X114490853Y-127219946D01*
X114296593Y-127510678D01*
X114009161Y-127567852D01*
X113762599Y-127732599D01*
X113000599Y-128494599D01*
X112835852Y-128741161D01*
X112778000Y-129032000D01*
X112778000Y-134239000D01*
X112835852Y-134529839D01*
X113000599Y-134776401D01*
X113381599Y-135157401D01*
X113628160Y-135322148D01*
X113919000Y-135380000D01*
X114191940Y-135380000D01*
X114128524Y-135533110D01*
X114249845Y-135763000D01*
X115443000Y-135763000D01*
X115443000Y-135743000D01*
X115697000Y-135743000D01*
X115697000Y-135763000D01*
X116890155Y-135763000D01*
X117011476Y-135533110D01*
X117000662Y-135507000D01*
X126365000Y-135507000D01*
X126655839Y-135449148D01*
X126902401Y-135284401D01*
X134017401Y-128169402D01*
X134182147Y-127922840D01*
X134182148Y-127922839D01*
X134240000Y-127632000D01*
X134240000Y-122297440D01*
X134355000Y-122297440D01*
X134536424Y-122263303D01*
X134705000Y-122297440D01*
X135055000Y-122297440D01*
X135229469Y-122264611D01*
X135278691Y-122285000D01*
X135333750Y-122285000D01*
X135492500Y-122126250D01*
X135492500Y-122123061D01*
X135506441Y-122114090D01*
X135573265Y-122016290D01*
X135667500Y-122110525D01*
X135667500Y-122126250D01*
X135826250Y-122285000D01*
X135881309Y-122285000D01*
X135930000Y-122264832D01*
X135978691Y-122285000D01*
X136033750Y-122285000D01*
X136152998Y-122165752D01*
X136152998Y-122285000D01*
X136273000Y-122285000D01*
X136273000Y-124922001D01*
X136085833Y-124921838D01*
X135742057Y-125063883D01*
X135478808Y-125326673D01*
X135336162Y-125670201D01*
X135335838Y-126042167D01*
X135477883Y-126385943D01*
X135511000Y-126419118D01*
X135511000Y-127066198D01*
X125415198Y-137162000D01*
X116287788Y-137162000D01*
X116451358Y-137085183D01*
X116841645Y-136656924D01*
X117011476Y-136246890D01*
X116890155Y-136017000D01*
X115697000Y-136017000D01*
X115697000Y-136037000D01*
X115443000Y-136037000D01*
X115443000Y-136017000D01*
X114249845Y-136017000D01*
X114128524Y-136246890D01*
X114298355Y-136656924D01*
X114688642Y-137085183D01*
X114852212Y-137162000D01*
X114427000Y-137162000D01*
X114136161Y-137219852D01*
X113949338Y-137344683D01*
X113889599Y-137384599D01*
X113381599Y-137892599D01*
X113216852Y-138139161D01*
X113159000Y-138430000D01*
X113159000Y-140843000D01*
X113216852Y-141133839D01*
X113381599Y-141380401D01*
X114270599Y-142269401D01*
X114509353Y-142428931D01*
X114462560Y-142660000D01*
X114462560Y-144360000D01*
X114506838Y-144595317D01*
X114645910Y-144811441D01*
X114793144Y-144912042D01*
X114300000Y-144813949D01*
X113340976Y-145004711D01*
X112527954Y-145547954D01*
X112470000Y-145634688D01*
X112470000Y-118466890D01*
X114128524Y-118466890D01*
X114298355Y-118876924D01*
X114688642Y-119305183D01*
X114847954Y-119380000D01*
X114688642Y-119454817D01*
X114298355Y-119883076D01*
X114128524Y-120293110D01*
X114249845Y-120523000D01*
X115443000Y-120523000D01*
X115443000Y-118237000D01*
X115697000Y-118237000D01*
X115697000Y-120523000D01*
X116890155Y-120523000D01*
X117011476Y-120293110D01*
X116841645Y-119883076D01*
X116451358Y-119454817D01*
X116292046Y-119380000D01*
X116451358Y-119305183D01*
X116841645Y-118876924D01*
X117011476Y-118466890D01*
X116890155Y-118237000D01*
X115697000Y-118237000D01*
X115443000Y-118237000D01*
X114249845Y-118237000D01*
X114128524Y-118466890D01*
X112470000Y-118466890D01*
X112470000Y-105825312D01*
X112527954Y-105912046D01*
X113340976Y-106455289D01*
X114279918Y-106642056D01*
X114181673Y-106740301D01*
X114085000Y-106973690D01*
X114085000Y-107664250D01*
X114243750Y-107823000D01*
X115443000Y-107823000D01*
X115443000Y-106623750D01*
X115697000Y-106623750D01*
X115697000Y-107823000D01*
X116896250Y-107823000D01*
X117055000Y-107664250D01*
X117055000Y-106973690D01*
X116958327Y-106740301D01*
X116779698Y-106561673D01*
X116546309Y-106465000D01*
X115855750Y-106465000D01*
X115697000Y-106623750D01*
X115443000Y-106623750D01*
X115284250Y-106465000D01*
X115210204Y-106465000D01*
X115259024Y-106455289D01*
X116072046Y-105912046D01*
X116615289Y-105099024D01*
X116806051Y-104140000D01*
X116615289Y-103180976D01*
X116072046Y-102367954D01*
X115985312Y-102310000D01*
X148174688Y-102310000D01*
X148087954Y-102367954D01*
X148087954Y-102367954D01*
G37*
X148087954Y-102367954D02*
X147544711Y-103180976D01*
X147353949Y-104140000D01*
X147544711Y-105099024D01*
X148087954Y-105912046D01*
X148900976Y-106455289D01*
X149860000Y-106646051D01*
X150819024Y-106455289D01*
X151632046Y-105912046D01*
X151690000Y-105825312D01*
X151690000Y-128263198D01*
X151159401Y-127732599D01*
X150912839Y-127567852D01*
X150622000Y-127510000D01*
X149862954Y-127510000D01*
X149669147Y-127219946D01*
X149339974Y-127000000D01*
X149669147Y-126780054D01*
X149991054Y-126298285D01*
X150104093Y-125730000D01*
X149991054Y-125161715D01*
X149669147Y-124679946D01*
X149627548Y-124652150D01*
X149675317Y-124643162D01*
X149891441Y-124504090D01*
X150036431Y-124291890D01*
X150087440Y-124040000D01*
X150087440Y-122340000D01*
X150043162Y-122104683D01*
X149904090Y-121888559D01*
X149691890Y-121743569D01*
X149440000Y-121692560D01*
X147740000Y-121692560D01*
X147504683Y-121736838D01*
X147288559Y-121875910D01*
X147143569Y-122088110D01*
X147092560Y-122340000D01*
X147092560Y-124040000D01*
X147136838Y-124275317D01*
X147275910Y-124491441D01*
X147488110Y-124636431D01*
X147555541Y-124650086D01*
X147510853Y-124679946D01*
X147317046Y-124970000D01*
X138738241Y-124970000D01*
X138579327Y-124810808D01*
X138235799Y-124668162D01*
X137863833Y-124667838D01*
X137793000Y-124697106D01*
X137793000Y-122297440D01*
X137855000Y-122297440D01*
X138036424Y-122263303D01*
X138205000Y-122297440D01*
X138555000Y-122297440D01*
X138729469Y-122264611D01*
X138778691Y-122285000D01*
X138833750Y-122285000D01*
X138992500Y-122126250D01*
X138992500Y-122123061D01*
X139006441Y-122114090D01*
X139151431Y-121901890D01*
X139167500Y-121822539D01*
X139167500Y-122126250D01*
X139326250Y-122285000D01*
X139381309Y-122285000D01*
X139614698Y-122188327D01*
X139793327Y-122009699D01*
X139890000Y-121776310D01*
X139890000Y-120935750D01*
X139731250Y-120777000D01*
X139202440Y-120777000D01*
X139202440Y-120523000D01*
X139731250Y-120523000D01*
X139890000Y-120364250D01*
X139890000Y-119523690D01*
X139793327Y-119290301D01*
X139614698Y-119111673D01*
X139381309Y-119015000D01*
X139326250Y-119015000D01*
X139207002Y-119134248D01*
X139207002Y-119015000D01*
X139140000Y-119015000D01*
X139140000Y-111202000D01*
X139082148Y-110911161D01*
X138917401Y-110664599D01*
X138205401Y-109952599D01*
X137958839Y-109787852D01*
X137668000Y-109730000D01*
X116842954Y-109730000D01*
X116649147Y-109439946D01*
X116605223Y-109410597D01*
X116779698Y-109338327D01*
X116958327Y-109159699D01*
X117055000Y-108926310D01*
X117055000Y-108235750D01*
X116896250Y-108077000D01*
X115697000Y-108077000D01*
X115697000Y-108097000D01*
X115443000Y-108097000D01*
X115443000Y-108077000D01*
X114243750Y-108077000D01*
X114085000Y-108235750D01*
X114085000Y-108926310D01*
X114181673Y-109159699D01*
X114360302Y-109338327D01*
X114534777Y-109410597D01*
X114490853Y-109439946D01*
X114168946Y-109921715D01*
X114055907Y-110490000D01*
X114168946Y-111058285D01*
X114490853Y-111540054D01*
X114820026Y-111760000D01*
X114490853Y-111979946D01*
X114168946Y-112461715D01*
X114055907Y-113030000D01*
X114168946Y-113598285D01*
X114490853Y-114080054D01*
X114820026Y-114300000D01*
X114490853Y-114519946D01*
X114168946Y-115001715D01*
X114055907Y-115570000D01*
X114168946Y-116138285D01*
X114490853Y-116620054D01*
X114831553Y-116847702D01*
X114688642Y-116914817D01*
X114298355Y-117343076D01*
X114128524Y-117753110D01*
X114249845Y-117983000D01*
X115443000Y-117983000D01*
X115443000Y-117963000D01*
X115697000Y-117963000D01*
X115697000Y-117983000D01*
X116890155Y-117983000D01*
X117011476Y-117753110D01*
X116841645Y-117343076D01*
X116451358Y-116914817D01*
X116308447Y-116847702D01*
X116649147Y-116620054D01*
X116842954Y-116330000D01*
X135321198Y-116330000D01*
X136220000Y-117228802D01*
X136220000Y-119015000D01*
X136152998Y-119015000D01*
X136152998Y-119134248D01*
X136033750Y-119015000D01*
X135978691Y-119015000D01*
X135930000Y-119035168D01*
X135881309Y-119015000D01*
X135826250Y-119015000D01*
X135707002Y-119134248D01*
X135707002Y-119015000D01*
X135640000Y-119015000D01*
X135640000Y-117481000D01*
X135582148Y-117190161D01*
X135417401Y-116943599D01*
X135030401Y-116556599D01*
X134783839Y-116391852D01*
X134493000Y-116334000D01*
X120269000Y-116334000D01*
X119978161Y-116391852D01*
X119731599Y-116556599D01*
X117826599Y-118461599D01*
X117661852Y-118708161D01*
X117604000Y-118999000D01*
X117604000Y-121986198D01*
X117160198Y-122430000D01*
X116842954Y-122430000D01*
X116649147Y-122139946D01*
X116308447Y-121912298D01*
X116451358Y-121845183D01*
X116841645Y-121416924D01*
X117011476Y-121006890D01*
X116890155Y-120777000D01*
X115697000Y-120777000D01*
X115697000Y-120797000D01*
X115443000Y-120797000D01*
X115443000Y-120777000D01*
X114249845Y-120777000D01*
X114128524Y-121006890D01*
X114298355Y-121416924D01*
X114688642Y-121845183D01*
X114831553Y-121912298D01*
X114490853Y-122139946D01*
X114168946Y-122621715D01*
X114055907Y-123190000D01*
X114168946Y-123758285D01*
X114490853Y-124240054D01*
X114820026Y-124460000D01*
X114490853Y-124679946D01*
X114168946Y-125161715D01*
X114055907Y-125730000D01*
X114168946Y-126298285D01*
X114490853Y-126780054D01*
X114820026Y-127000000D01*
X114490853Y-127219946D01*
X114296593Y-127510678D01*
X114009161Y-127567852D01*
X113762599Y-127732599D01*
X113000599Y-128494599D01*
X112835852Y-128741161D01*
X112778000Y-129032000D01*
X112778000Y-134239000D01*
X112835852Y-134529839D01*
X113000599Y-134776401D01*
X113381599Y-135157401D01*
X113628160Y-135322148D01*
X113919000Y-135380000D01*
X114191940Y-135380000D01*
X114128524Y-135533110D01*
X114249845Y-135763000D01*
X115443000Y-135763000D01*
X115443000Y-135743000D01*
X115697000Y-135743000D01*
X115697000Y-135763000D01*
X116890155Y-135763000D01*
X117011476Y-135533110D01*
X117000662Y-135507000D01*
X126365000Y-135507000D01*
X126655839Y-135449148D01*
X126902401Y-135284401D01*
X134017401Y-128169402D01*
X134182147Y-127922840D01*
X134182148Y-127922839D01*
X134240000Y-127632000D01*
X134240000Y-122297440D01*
X134355000Y-122297440D01*
X134536424Y-122263303D01*
X134705000Y-122297440D01*
X135055000Y-122297440D01*
X135229469Y-122264611D01*
X135278691Y-122285000D01*
X135333750Y-122285000D01*
X135492500Y-122126250D01*
X135492500Y-122123061D01*
X135506441Y-122114090D01*
X135573265Y-122016290D01*
X135667500Y-122110525D01*
X135667500Y-122126250D01*
X135826250Y-122285000D01*
X135881309Y-122285000D01*
X135930000Y-122264832D01*
X135978691Y-122285000D01*
X136033750Y-122285000D01*
X136152998Y-122165752D01*
X136152998Y-122285000D01*
X136273000Y-122285000D01*
X136273000Y-124922001D01*
X136085833Y-124921838D01*
X135742057Y-125063883D01*
X135478808Y-125326673D01*
X135336162Y-125670201D01*
X135335838Y-126042167D01*
X135477883Y-126385943D01*
X135511000Y-126419118D01*
X135511000Y-127066198D01*
X125415198Y-137162000D01*
X116287788Y-137162000D01*
X116451358Y-137085183D01*
X116841645Y-136656924D01*
X117011476Y-136246890D01*
X116890155Y-136017000D01*
X115697000Y-136017000D01*
X115697000Y-136037000D01*
X115443000Y-136037000D01*
X115443000Y-136017000D01*
X114249845Y-136017000D01*
X114128524Y-136246890D01*
X114298355Y-136656924D01*
X114688642Y-137085183D01*
X114852212Y-137162000D01*
X114427000Y-137162000D01*
X114136161Y-137219852D01*
X113949338Y-137344683D01*
X113889599Y-137384599D01*
X113381599Y-137892599D01*
X113216852Y-138139161D01*
X113159000Y-138430000D01*
X113159000Y-140843000D01*
X113216852Y-141133839D01*
X113381599Y-141380401D01*
X114270599Y-142269401D01*
X114509353Y-142428931D01*
X114462560Y-142660000D01*
X114462560Y-144360000D01*
X114506838Y-144595317D01*
X114645910Y-144811441D01*
X114793144Y-144912042D01*
X114300000Y-144813949D01*
X113340976Y-145004711D01*
X112527954Y-145547954D01*
X112470000Y-145634688D01*
X112470000Y-118466890D01*
X114128524Y-118466890D01*
X114298355Y-118876924D01*
X114688642Y-119305183D01*
X114847954Y-119380000D01*
X114688642Y-119454817D01*
X114298355Y-119883076D01*
X114128524Y-120293110D01*
X114249845Y-120523000D01*
X115443000Y-120523000D01*
X115443000Y-118237000D01*
X115697000Y-118237000D01*
X115697000Y-120523000D01*
X116890155Y-120523000D01*
X117011476Y-120293110D01*
X116841645Y-119883076D01*
X116451358Y-119454817D01*
X116292046Y-119380000D01*
X116451358Y-119305183D01*
X116841645Y-118876924D01*
X117011476Y-118466890D01*
X116890155Y-118237000D01*
X115697000Y-118237000D01*
X115443000Y-118237000D01*
X114249845Y-118237000D01*
X114128524Y-118466890D01*
X112470000Y-118466890D01*
X112470000Y-105825312D01*
X112527954Y-105912046D01*
X113340976Y-106455289D01*
X114279918Y-106642056D01*
X114181673Y-106740301D01*
X114085000Y-106973690D01*
X114085000Y-107664250D01*
X114243750Y-107823000D01*
X115443000Y-107823000D01*
X115443000Y-106623750D01*
X115697000Y-106623750D01*
X115697000Y-107823000D01*
X116896250Y-107823000D01*
X117055000Y-107664250D01*
X117055000Y-106973690D01*
X116958327Y-106740301D01*
X116779698Y-106561673D01*
X116546309Y-106465000D01*
X115855750Y-106465000D01*
X115697000Y-106623750D01*
X115443000Y-106623750D01*
X115284250Y-106465000D01*
X115210204Y-106465000D01*
X115259024Y-106455289D01*
X116072046Y-105912046D01*
X116615289Y-105099024D01*
X116806051Y-104140000D01*
X116615289Y-103180976D01*
X116072046Y-102367954D01*
X115985312Y-102310000D01*
X148174688Y-102310000D01*
X148087954Y-102367954D01*
G36*
X147510853Y-126780054D02*
X147840026Y-127000000D01*
X147510853Y-127219946D01*
X147188946Y-127701715D01*
X147075907Y-128270000D01*
X147188946Y-128838285D01*
X147510853Y-129320054D01*
X147840026Y-129540000D01*
X147510853Y-129759946D01*
X147188946Y-130241715D01*
X147075907Y-130810000D01*
X147188946Y-131378285D01*
X147510853Y-131860054D01*
X147840026Y-132080000D01*
X147510853Y-132299946D01*
X147188946Y-132781715D01*
X147075907Y-133350000D01*
X147188946Y-133918285D01*
X147510853Y-134400054D01*
X147992622Y-134721961D01*
X148560907Y-134835000D01*
X148619093Y-134835000D01*
X149187378Y-134721961D01*
X149669147Y-134400054D01*
X149735000Y-134301498D01*
X149735000Y-135343367D01*
X149411799Y-135209162D01*
X149039833Y-135208838D01*
X148696057Y-135350883D01*
X148432808Y-135613673D01*
X148290162Y-135957201D01*
X148290121Y-136004077D01*
X147512599Y-136781599D01*
X147411730Y-136932560D01*
X147050000Y-136932560D01*
X146814683Y-136976838D01*
X146598559Y-137115910D01*
X146453569Y-137328110D01*
X146402560Y-137580000D01*
X146402560Y-139280000D01*
X146446838Y-139515317D01*
X146567015Y-139702077D01*
X146453569Y-139868110D01*
X146402560Y-140120000D01*
X146402560Y-140755758D01*
X146079401Y-140432599D01*
X145832839Y-140267852D01*
X145697440Y-140240919D01*
X145697440Y-140120000D01*
X145653162Y-139884683D01*
X145532985Y-139697923D01*
X145646431Y-139531890D01*
X145697440Y-139280000D01*
X145697440Y-137580000D01*
X145653162Y-137344683D01*
X145514090Y-137128559D01*
X145301890Y-136983569D01*
X145050000Y-136932560D01*
X143050000Y-136932560D01*
X142814683Y-136976838D01*
X142598559Y-137115910D01*
X142453569Y-137328110D01*
X142402560Y-137580000D01*
X142402560Y-137797000D01*
X141030802Y-137797000D01*
X139111122Y-135877320D01*
X139111162Y-135831833D01*
X138969117Y-135488057D01*
X138759826Y-135278400D01*
X140044060Y-135278400D01*
X140044060Y-136130400D01*
X140088338Y-136365717D01*
X140227410Y-136581841D01*
X140439610Y-136726831D01*
X140691500Y-136777840D01*
X142391500Y-136777840D01*
X142626817Y-136733562D01*
X142842941Y-136594490D01*
X142987931Y-136382290D01*
X143009801Y-136274293D01*
X143314576Y-136552045D01*
X143724610Y-136721876D01*
X143954500Y-136600555D01*
X143954500Y-135407400D01*
X144208500Y-135407400D01*
X144208500Y-136600555D01*
X144438390Y-136721876D01*
X144848424Y-136552045D01*
X145276683Y-136161758D01*
X145522986Y-135637292D01*
X145402319Y-135407400D01*
X144208500Y-135407400D01*
X143954500Y-135407400D01*
X143934500Y-135407400D01*
X143934500Y-135153400D01*
X143954500Y-135153400D01*
X143954500Y-133960245D01*
X144208500Y-133960245D01*
X144208500Y-135153400D01*
X145402319Y-135153400D01*
X145522986Y-134923508D01*
X145276683Y-134399042D01*
X144848424Y-134008755D01*
X144438390Y-133838924D01*
X144208500Y-133960245D01*
X143954500Y-133960245D01*
X143724610Y-133838924D01*
X143314576Y-134008755D01*
X143011563Y-134284901D01*
X142994662Y-134195083D01*
X142855590Y-133978959D01*
X142643390Y-133833969D01*
X142391500Y-133782960D01*
X140902970Y-133782960D01*
X140779500Y-133758400D01*
X137793000Y-133758400D01*
X137793000Y-126509103D01*
X137862201Y-126537838D01*
X138234167Y-126538162D01*
X138350728Y-126490000D01*
X147317046Y-126490000D01*
X147510853Y-126780054D01*
X147510853Y-126780054D01*
G37*
X147510853Y-126780054D02*
X147840026Y-127000000D01*
X147510853Y-127219946D01*
X147188946Y-127701715D01*
X147075907Y-128270000D01*
X147188946Y-128838285D01*
X147510853Y-129320054D01*
X147840026Y-129540000D01*
X147510853Y-129759946D01*
X147188946Y-130241715D01*
X147075907Y-130810000D01*
X147188946Y-131378285D01*
X147510853Y-131860054D01*
X147840026Y-132080000D01*
X147510853Y-132299946D01*
X147188946Y-132781715D01*
X147075907Y-133350000D01*
X147188946Y-133918285D01*
X147510853Y-134400054D01*
X147992622Y-134721961D01*
X148560907Y-134835000D01*
X148619093Y-134835000D01*
X149187378Y-134721961D01*
X149669147Y-134400054D01*
X149735000Y-134301498D01*
X149735000Y-135343367D01*
X149411799Y-135209162D01*
X149039833Y-135208838D01*
X148696057Y-135350883D01*
X148432808Y-135613673D01*
X148290162Y-135957201D01*
X148290121Y-136004077D01*
X147512599Y-136781599D01*
X147411730Y-136932560D01*
X147050000Y-136932560D01*
X146814683Y-136976838D01*
X146598559Y-137115910D01*
X146453569Y-137328110D01*
X146402560Y-137580000D01*
X146402560Y-139280000D01*
X146446838Y-139515317D01*
X146567015Y-139702077D01*
X146453569Y-139868110D01*
X146402560Y-140120000D01*
X146402560Y-140755758D01*
X146079401Y-140432599D01*
X145832839Y-140267852D01*
X145697440Y-140240919D01*
X145697440Y-140120000D01*
X145653162Y-139884683D01*
X145532985Y-139697923D01*
X145646431Y-139531890D01*
X145697440Y-139280000D01*
X145697440Y-137580000D01*
X145653162Y-137344683D01*
X145514090Y-137128559D01*
X145301890Y-136983569D01*
X145050000Y-136932560D01*
X143050000Y-136932560D01*
X142814683Y-136976838D01*
X142598559Y-137115910D01*
X142453569Y-137328110D01*
X142402560Y-137580000D01*
X142402560Y-137797000D01*
X141030802Y-137797000D01*
X139111122Y-135877320D01*
X139111162Y-135831833D01*
X138969117Y-135488057D01*
X138759826Y-135278400D01*
X140044060Y-135278400D01*
X140044060Y-136130400D01*
X140088338Y-136365717D01*
X140227410Y-136581841D01*
X140439610Y-136726831D01*
X140691500Y-136777840D01*
X142391500Y-136777840D01*
X142626817Y-136733562D01*
X142842941Y-136594490D01*
X142987931Y-136382290D01*
X143009801Y-136274293D01*
X143314576Y-136552045D01*
X143724610Y-136721876D01*
X143954500Y-136600555D01*
X143954500Y-135407400D01*
X144208500Y-135407400D01*
X144208500Y-136600555D01*
X144438390Y-136721876D01*
X144848424Y-136552045D01*
X145276683Y-136161758D01*
X145522986Y-135637292D01*
X145402319Y-135407400D01*
X144208500Y-135407400D01*
X143954500Y-135407400D01*
X143934500Y-135407400D01*
X143934500Y-135153400D01*
X143954500Y-135153400D01*
X143954500Y-133960245D01*
X144208500Y-133960245D01*
X144208500Y-135153400D01*
X145402319Y-135153400D01*
X145522986Y-134923508D01*
X145276683Y-134399042D01*
X144848424Y-134008755D01*
X144438390Y-133838924D01*
X144208500Y-133960245D01*
X143954500Y-133960245D01*
X143724610Y-133838924D01*
X143314576Y-134008755D01*
X143011563Y-134284901D01*
X142994662Y-134195083D01*
X142855590Y-133978959D01*
X142643390Y-133833969D01*
X142391500Y-133782960D01*
X140902970Y-133782960D01*
X140779500Y-133758400D01*
X137793000Y-133758400D01*
X137793000Y-126509103D01*
X137862201Y-126537838D01*
X138234167Y-126538162D01*
X138350728Y-126490000D01*
X147317046Y-126490000D01*
X147510853Y-126780054D01*
M02*
